<?xml version="1.0" encoding="UTF-8" standalone="no"?><!DOCTYPE svg PUBLIC "-//W3C//DTD SVG 1.1//EN" "http://www.w3.org/Graphics/SVG/1.1/DTD/svg11.dtd"><svg width="100%" height="100%" viewBox="0 0 50 65" version="1.1" xmlns="http://www.w3.org/2000/svg" xmlns:xlink="http://www.w3.org/1999/xlink" xml:space="preserve" xmlns:serif="http://www.serif.com/" style="fill-rule:evenodd;clip-rule:evenodd;stroke-linejoin:round;stroke-miterlimit:1.41421;"><rect id="bean" x="0" y="0" width="50" height="65" style="fill:none;"/><g><g id="bean1" serif:id="bean"><path d="M17.105,24.906c0.878,-4.102 -3.427,-7.932 -2.437,-12.02c0.002,-0.008 0.004,-0.017 0.005,-0.025c0.68,-3.374 3.18,-5.721 7.969,-6.911c1.936,-0.503 3.965,-0.521 5.909,-0.054c7.435,1.73 12.298,8.934 13.947,17.442c0.561,2.852 0.304,5.804 -0.74,8.517c-1.512,3.937 -4.379,7.039 -8.392,9.34c-2.945,1.683 -6.175,2.811 -9.528,3.329c-9.578,1.516 -15.007,-0.787 -16.461,-5.924c-0.427,-1.463 -0.395,-3.022 0.093,-4.467c0.557,-1.663 1.787,-3.206 4.128,-4.27c3.763,-1.71 5.15,-3.287 5.507,-4.957Z" style="fill:#c8c9cd;fill-opacity:0.5;"/></g><g><g id="growth"><rect x="20.62" y="31.653" width="14" height="0.403" style="fill:#fff;"/><path d="M34.128,21.678l-0.933,-1.614c-0.057,-0.1 -0.197,-0.14 -0.313,-0.09c0,0 0,0 0,0l-1.867,0.807c-0.115,0.049 -0.162,0.171 -0.104,0.27c0.057,0.1 0.198,0.141 0.313,0.091l1.352,-0.584l-0.369,0.91c-1.621,3.993 -5.798,6.794 -10.674,7.159l0.04,0.403c5.06,-0.379 9.393,-3.285 11.075,-7.429l0.376,-0.93l0.687,1.187c0.057,0.1 0.198,0.14 0.313,0.091c0.115,-0.05 0.162,-0.171 0.104,-0.271Z" style="fill:#fff;fill-rule:nonzero;"/><path d="M23.42,29.636l-1.634,0c-0.129,0 -0.233,0.09 -0.233,0.201l0,1.211c0,0.111 0.104,0.201 0.233,0.201l1.634,0c0.129,0 0.233,-0.09 0.233,-0.201l0,-1.211c0,-0.111 -0.104,-0.201 -0.233,-0.201Zm-0.234,1.21l-1.166,0l0,-0.807l1.166,0l0,0.807Z" style="fill:#fff;fill-rule:nonzero;"/><path d="M25.986,29.03l-1.633,0c-0.129,0 -0.233,0.091 -0.233,0.202l0,1.816c0,0.111 0.104,0.201 0.233,0.201l1.633,0c0.129,0 0.234,-0.09 0.234,-0.201l0,-1.816c0,-0.111 -0.105,-0.202 -0.234,-0.202Zm-0.233,1.816l-1.167,0l0,-1.412l1.167,0l0,1.412Z" style="fill:#fff;fill-rule:nonzero;"/><path d="M28.553,28.022l-1.633,0c-0.129,0 -0.234,0.09 -0.234,0.201l0,2.825c0,0.111 0.105,0.201 0.234,0.201l1.633,0c0.129,0 0.233,-0.09 0.233,-0.201l0,-2.825c0,-0.111 -0.104,-0.201 -0.233,-0.201Zm-0.233,2.824l-1.167,0l0,-2.421l1.167,0l0,2.421Z" style="fill:#fff;fill-rule:nonzero;"/><path d="M31.12,26.61l-1.634,0c-0.129,0 -0.233,0.09 -0.233,0.201l0,4.237c0,0.111 0.104,0.201 0.233,0.201l1.634,0c0.129,0 0.233,-0.09 0.233,-0.201l0,-4.237c0,-0.111 -0.104,-0.201 -0.233,-0.201Zm-0.234,4.236l-1.166,0l0,-3.833l1.166,0l0,3.833Z" style="fill:#fff;fill-rule:nonzero;"/><path d="M33.686,23.785l-1.633,0c-0.129,0 -0.233,0.091 -0.233,0.202l0,7.061c0,0.111 0.104,0.201 0.233,0.201l1.633,0c0.129,0 0.234,-0.09 0.234,-0.201l0,-7.061c0,-0.111 -0.105,-0.202 -0.234,-0.202Zm-0.233,7.061l-1.167,0l0,-6.657l1.167,0l0,6.657Z" style="fill:#fff;fill-rule:nonzero;"/></g></g></g></svg>