<?xml version="1.0" standalone="no"?>
<!DOCTYPE svg PUBLIC "-//W3C//DTD SVG 20010904//EN"
 "http://www.w3.org/TR/2001/REC-SVG-20010904/DTD/svg10.dtd">
<svg version="1.0" xmlns="http://www.w3.org/2000/svg"
 width="9600.000000pt" height="5400.000000pt" viewBox="0 0 9600.000000 5400.000000"
 preserveAspectRatio="xMidYMid meet">
<metadata>
Created by potrace 1.16, written by Peter Selinger 2001-2019
</metadata>
<g transform="translate(0.000000,5400.000000) scale(0.100000,-0.100000)"
fill="#000000" stroke="none">
<path d="M44695 32675 c-27 -14 -57 -25 -66 -25 -9 0 -24 -9 -34 -20 -10 -11
-30 -20 -44 -20 -15 0 -44 -10 -66 -22 -35 -19 -55 -22 -161 -22 -97 0 -126 3
-147 17 -15 9 -55 21 -91 26 -35 5 -75 16 -87 25 -30 19 -160 46 -219 45 -43
0 -103 -17 -70 -18 8 -1 45 -6 82 -11 68 -10 91 -19 258 -99 l95 -45 187 -1
c178 0 188 1 217 23 16 12 37 22 45 22 8 0 28 11 44 25 17 14 36 25 44 25 8 0
30 12 49 26 34 26 35 26 173 21 76 -4 135 -3 130 2 -5 4 -35 17 -67 29 -85 32
-204 30 -272 -3z"/>
<path d="M51150 32630 c-8 -5 -38 -14 -67 -20 -28 -6 -54 -17 -56 -25 -3 -7
-21 -16 -39 -20 -18 -4 -44 -16 -57 -26 -13 -11 -38 -19 -56 -19 -17 0 -58 -5
-91 -11 -43 -8 -84 -8 -154 1 -107 13 -115 15 -260 65 -111 39 -218 54 -286
40 -33 -6 -36 -9 -19 -15 11 -5 43 -9 70 -9 65 -1 180 -39 278 -90 42 -23 86
-41 97 -41 11 0 37 -9 57 -20 54 -29 254 -29 316 -1 24 11 55 23 70 26 15 4
27 11 27 17 0 5 17 16 38 25 20 8 45 24 55 34 10 10 28 19 40 19 12 1 33 7 47
15 33 19 153 19 216 0 55 -16 93 -19 54 -4 -13 6 -32 17 -41 24 -39 36 -201
59 -239 35z"/>
<path d="M41295 32502 c-11 -2 -24 -8 -30 -12 -5 -5 -28 -11 -50 -15 -38 -7
-69 -20 -140 -58 -16 -9 -41 -21 -55 -28 -14 -6 -45 -20 -70 -32 -37 -19 -61
-22 -150 -21 -108 1 -135 8 -342 83 -32 12 -64 21 -73 21 -21 0 -19 -19 3 -26
16 -6 106 -43 167 -70 17 -7 50 -18 75 -24 25 -7 67 -19 93 -27 58 -19 188
-13 233 10 16 8 47 18 68 21 22 4 49 14 60 22 12 8 39 19 61 25 22 6 48 18 59
27 27 25 245 25 273 0 10 -9 37 -21 61 -26 23 -6 53 -17 65 -25 12 -8 45 -18
73 -22 28 -3 64 -13 79 -21 36 -19 179 -29 230 -16 45 11 145 46 190 66 17 8
41 17 55 21 14 4 32 13 40 20 8 8 51 23 96 34 64 16 91 19 135 12 80 -14 181
-38 248 -61 67 -22 81 -24 81 -11 0 5 -15 12 -32 16 -18 4 -44 14 -57 22 -14
9 -56 24 -95 35 -39 10 -89 23 -111 29 -56 15 -217 5 -257 -16 -18 -10 -54
-21 -81 -26 -26 -4 -59 -17 -74 -28 -14 -12 -36 -21 -50 -21 -13 0 -40 -7 -60
-15 -19 -8 -56 -15 -82 -15 -65 0 -218 34 -266 59 -21 12 -51 21 -65 21 -14 0
-38 9 -55 20 -16 11 -40 20 -52 20 -12 0 -44 7 -70 16 -51 18 -95 23 -128 16z"/>
<path d="M47606 32420 c-15 -5 -36 -15 -45 -23 -9 -8 -29 -18 -46 -21 -16 -4
-37 -13 -45 -20 -8 -8 -28 -16 -44 -20 -15 -4 -40 -16 -55 -26 -16 -12 -58
-25 -107 -32 -69 -10 -97 -9 -185 5 -56 9 -117 26 -136 37 -18 10 -57 22 -85
26 -49 7 -52 6 -39 -9 7 -10 19 -17 26 -17 7 0 52 -19 101 -42 l89 -43 180 0
c149 0 185 3 205 16 14 9 42 21 63 28 20 7 37 16 37 21 0 5 17 14 38 21 20 6
53 20 72 30 51 28 142 25 205 -6 28 -14 56 -25 63 -25 7 0 25 -9 40 -19 15
-11 45 -22 66 -26 21 -3 50 -14 65 -23 37 -25 389 -25 417 -1 11 9 30 20 44
24 14 4 68 27 120 53 88 42 101 46 175 46 44 1 114 -3 155 -8 97 -11 83 4 -30
33 -106 27 -190 27 -249 1 -24 -11 -51 -20 -60 -20 -9 0 -33 -9 -54 -20 -20
-11 -47 -20 -58 -20 -12 0 -46 -12 -76 -26 -50 -23 -63 -25 -161 -21 -102 4
-123 8 -267 58 -16 6 -43 15 -60 21 -16 6 -48 20 -70 31 -32 17 -61 22 -150
24 -60 1 -123 -2 -139 -7z"/>
<path d="M54025 32229 c21 -65 80 -172 106 -192 16 -11 50 -56 75 -98 63 -108
100 -157 134 -177 16 -10 47 -45 70 -79 44 -67 172 -193 195 -193 8 0 37 -20
65 -45 55 -49 99 -75 127 -75 10 0 27 -6 38 -14 11 -7 34 -18 50 -24 50 -19
-90 -3 -157 18 -98 30 -228 6 -225 -42 0 -13 5 -26 10 -29 14 -10 -34 -32
-133 -64 -47 -15 -107 -36 -135 -47 -27 -11 -66 -24 -85 -30 -19 -5 -93 -38
-165 -73 -185 -89 -384 -152 -528 -167 -103 -10 -353 3 -401 22 -13 5 -53 14
-88 20 -77 13 -219 54 -273 79 -22 10 -56 25 -75 34 -19 8 -71 30 -115 50 -44
19 -98 38 -120 42 -22 4 -49 12 -60 18 -11 6 -47 19 -80 28 -33 9 -80 24 -105
32 -91 30 -167 42 -270 42 -207 0 -341 -39 -605 -177 -397 -209 -543 -258
-766 -258 -151 0 -272 20 -449 75 -47 15 -125 37 -173 51 -49 13 -93 26 -98
30 -5 3 -37 14 -72 24 -34 10 -89 28 -122 40 -33 12 -109 36 -170 52 -95 25
-134 30 -290 35 -186 5 -333 -11 -362 -40 -10 -9 31 -12 195 -12 176 0 215 -3
260 -19 30 -10 77 -24 105 -31 68 -18 142 -43 194 -66 24 -10 47 -19 51 -19 5
0 25 -11 44 -23 19 -13 48 -27 64 -31 16 -4 36 -14 44 -21 8 -8 52 -27 97 -44
46 -17 120 -46 165 -65 206 -86 290 -105 527 -121 206 -13 454 33 634 119 51
24 121 56 157 70 36 15 95 43 131 61 173 90 324 122 483 105 101 -11 248 -50
304 -80 20 -11 43 -20 50 -20 8 0 35 -11 61 -24 25 -13 80 -35 121 -49 41 -14
102 -37 135 -51 116 -48 336 -105 455 -116 246 -24 606 -5 650 35 8 7 38 19
65 26 45 11 96 34 158 73 12 7 36 17 52 21 17 3 103 42 192 86 209 102 306
129 498 136 81 3 171 1 215 -6 163 -24 309 -54 400 -82 364 -110 730 -183 762
-151 8 8 0 12 -28 17 -137 24 -575 173 -699 238 -85 45 -159 77 -210 93 -33
10 -76 28 -95 41 -19 13 -45 23 -57 23 -27 0 -40 18 -19 26 9 3 156 1 328 -5
301 -11 1385 -17 1394 -8 6 6 -49 143 -86 215 -16 31 -94 161 -174 287 -80
127 -173 276 -208 333 l-62 103 -231 -6 c-126 -3 -286 -7 -355 -10 -373 -14
-1020 -17 -1100 -6 -91 13 -290 62 -355 87 -22 9 -46 19 -54 22 -10 4 -11 -1
-6 -19z m2081 -133 c22 -23 24 -30 13 -37 -12 -7 -11 -9 1 -9 13 0 13 -2 0 -9
-8 -6 -18 -7 -22 -5 -4 3 -8 1 -8 -4 0 -11 -55 -17 -352 -37 -228 -16 -1049
-25 -1163 -13 -159 16 -190 30 -97 44 26 4 42 9 35 11 -6 2 -35 0 -65 -6 -29
-5 -57 -6 -62 -1 -5 5 8 11 30 15 70 11 70 14 1 9 -46 -3 -66 -1 -62 6 3 5 0
7 -8 4 -8 -3 -17 1 -20 9 -9 23 106 34 273 27 80 -4 212 -3 294 1 84 4 160 3
173 -2 13 -5 23 -5 23 0 0 5 10 8 23 8 12 0 91 3 175 7 83 4 152 5 152 2 0 -4
-32 -22 -72 -41 -40 -19 -69 -35 -64 -35 5 0 2 -8 -5 -17 -8 -9 6 -2 30 15 48
35 72 42 50 15 -12 -14 -11 -14 13 1 15 10 25 23 21 29 -4 6 0 8 11 4 11 -5
15 -3 10 5 -5 8 -2 9 10 5 11 -5 15 -3 10 5 -5 8 -2 9 9 5 10 -3 17 -2 17 4 0
6 8 5 21 -2 12 -6 19 -7 15 -1 -3 6 39 10 115 10 66 0 123 2 125 5 3 3 77 4
164 3 l160 -1 26 -29z"/>
<path d="M58095 32208 c-137 -4 -614 -17 -1059 -28 -445 -10 -810 -21 -812
-23 -2 -2 63 -113 144 -248 284 -468 265 -443 381 -505 40 -21 70 -49 114
-106 46 -60 66 -78 85 -78 22 0 24 -3 19 -29 -9 -42 21 -78 51 -62 29 15 77
14 111 -3 23 -12 51 -13 157 -6 71 5 154 14 184 20 30 6 98 10 150 10 346 -4
382 1 313 42 -38 22 -76 65 -69 76 3 5 18 13 33 17 29 7 63 32 63 46 0 12 -33
20 -159 39 l-116 18 105 1 c58 1 138 6 178 10 70 7 73 8 121 58 27 28 52 61
56 72 3 12 10 21 14 21 32 0 241 -80 301 -115 39 -23 152 -77 180 -85 14 -5
57 -20 95 -35 278 -107 365 -133 499 -146 247 -24 502 -6 636 44 36 14 81 31
100 38 19 7 49 23 65 34 17 12 59 34 95 49 36 16 90 43 121 61 31 18 66 36 78
40 11 3 33 17 49 29 28 24 105 57 227 97 105 35 284 33 464 -4 74 -15 155 -34
180 -42 25 -8 93 -30 151 -49 126 -41 239 -70 247 -63 8 8 -73 56 -162 96 -44
20 -101 48 -127 64 -26 15 -49 27 -53 27 -3 0 -40 16 -83 36 -112 51 -109 50
-207 84 -119 40 -295 72 -360 64 -93 -11 -242 -44 -290 -64 -26 -11 -52 -20
-58 -20 -7 0 -24 -6 -39 -14 -15 -8 -55 -24 -90 -37 -34 -12 -76 -30 -93 -40
-158 -94 -374 -162 -570 -181 -102 -10 -136 -9 -230 6 -161 25 -213 35 -280
56 -33 10 -84 23 -112 29 -29 6 -92 26 -140 45 -172 67 -422 136 -494 136 -16
0 -29 5 -29 13 0 26 23 91 40 116 10 14 26 62 35 106 10 44 23 91 30 105 11
21 35 145 35 179 0 6 -6 10 -12 9 -7 -1 -125 -5 -263 -10z m-45 -43 c0 -3 -26
-18 -57 -34 -32 -17 -54 -30 -49 -31 5 0 38 16 73 35 35 19 78 35 95 35 30 0
30 -1 14 -19 -9 -10 -64 -36 -121 -57 -57 -21 -103 -40 -100 -42 2 -2 26 3 52
13 85 30 103 34 103 24 0 -5 -7 -9 -15 -9 -8 0 -14 -6 -12 -12 1 -7 -6 -12
-15 -12 -10 1 -15 -3 -12 -8 4 -6 -21 -9 -62 -9 -38 0 -105 -1 -149 -3 -215
-10 -659 -23 -995 -30 -307 -7 -446 10 -482 56 -25 32 -18 51 22 60 19 4 170
10 335 13 512 8 1077 24 1084 30 5 6 291 5 291 0z"/>
<path d="M39210 32071 c-58 -15 -118 -35 -135 -44 -16 -9 -37 -17 -46 -17 -9
0 -27 -8 -40 -17 -79 -58 -227 -111 -362 -130 -113 -16 -127 -16 -260 1 -77
10 -152 22 -166 28 -14 6 -54 16 -87 23 -34 8 -80 23 -103 34 -22 12 -46 21
-54 21 -7 0 -32 9 -55 20 -22 11 -50 20 -60 20 -10 0 -45 9 -78 21 -85 30
-378 39 -474 15 -131 -34 -194 -85 -73 -59 95 20 258 13 343 -14 36 -12 90
-29 120 -38 30 -9 122 -50 205 -91 82 -41 160 -74 172 -74 13 0 46 -11 73 -25
27 -14 56 -25 63 -25 8 0 42 -9 75 -19 79 -26 289 -37 396 -22 71 10 185 44
233 70 10 5 52 26 93 46 88 43 128 65 167 91 52 35 107 56 208 80 111 26 154
29 205 13 19 -6 66 -14 103 -19 66 -9 236 -57 308 -87 20 -8 47 -13 60 -11 19
2 2 14 -71 50 -52 26 -111 56 -130 67 -51 29 -176 81 -194 81 -9 0 -49 9 -88
20 -103 28 -215 25 -348 -9z"/>
<path d="M47034 31756 c-17 -8 -46 -17 -65 -21 -19 -4 -45 -16 -58 -26 -13
-11 -33 -19 -45 -19 -12 0 -31 -9 -43 -19 -14 -13 -52 -24 -124 -34 -97 -15
-112 -14 -219 3 -67 10 -157 34 -215 55 -82 30 -118 38 -201 42 -126 7 -176
-11 -57 -20 90 -7 273 -70 323 -112 8 -7 33 -16 55 -19 22 -4 51 -15 65 -24
19 -12 55 -18 142 -20 104 -4 122 -2 161 17 24 12 48 21 53 21 6 0 25 11 44
25 19 14 41 25 50 25 9 0 25 8 34 19 9 10 45 29 79 42 75 29 188 30 267 4 28
-9 54 -15 56 -12 3 3 -5 8 -18 13 -12 4 -27 13 -33 20 -12 15 -150 54 -191 54
-16 -1 -43 -7 -60 -14z"/>
<path d="M32927 31730 c-27 -5 -54 -13 -60 -18 -7 -5 -25 -12 -41 -16 -15 -4
-60 -25 -99 -47 -63 -36 -142 -75 -321 -158 -159 -74 -332 -83 -556 -30 -61
15 -167 48 -210 65 -19 8 -57 21 -85 28 -27 8 -70 21 -95 29 -191 63 -334 84
-456 67 -43 -5 -79 -12 -82 -14 -2 -2 32 -7 75 -10 146 -12 227 -26 318 -57
49 -17 99 -37 110 -43 11 -7 38 -19 60 -26 22 -7 51 -20 65 -30 14 -9 42 -20
64 -23 21 -3 46 -13 55 -20 33 -29 218 -97 304 -112 21 -3 112 -6 202 -6 153
0 170 2 258 29 52 17 130 48 172 71 43 23 83 41 90 41 6 0 42 15 81 34 122 59
192 80 274 81 85 0 192 -22 262 -54 26 -11 52 -21 58 -21 6 0 28 -9 50 -20 22
-11 46 -20 55 -20 9 0 62 -20 118 -44 56 -24 119 -47 140 -50 21 -4 65 -16 99
-27 52 -16 90 -19 260 -19 187 0 204 2 281 26 45 15 91 31 102 37 24 13 65 32
123 58 110 50 132 59 202 92 136 64 173 70 364 64 141 -4 181 -9 228 -26 32
-12 67 -21 78 -21 12 0 34 -6 49 -14 15 -8 54 -22 87 -30 32 -8 94 -24 137
-35 100 -25 187 -36 187 -24 0 10 -82 42 -315 124 -60 21 -128 47 -150 58 -22
10 -56 21 -76 25 -21 4 -50 13 -66 21 -78 39 -425 48 -503 12 -19 -8 -53 -21
-75 -28 -22 -6 -62 -22 -90 -34 -71 -32 -224 -89 -325 -121 -70 -22 -246 -30
-325 -14 -33 6 -93 18 -133 25 -40 8 -79 18 -85 23 -7 6 -32 15 -57 22 -58 15
-169 59 -195 76 -11 8 -27 14 -36 14 -9 0 -37 11 -63 25 -26 14 -56 25 -66 25
-11 0 -43 9 -72 21 -42 16 -81 21 -188 24 -74 2 -157 0 -183 -5z"/>
<path d="M43450 31525 c-19 -14 -41 -25 -49 -25 -9 0 -29 -9 -46 -20 -16 -11
-39 -20 -49 -20 -11 0 -30 -10 -43 -22 -52 -49 -269 -55 -388 -11 -104 38
-159 53 -168 44 -8 -8 35 -32 172 -92 50 -22 67 -24 220 -24 155 0 168 2 202
23 20 12 43 22 51 22 8 0 31 11 51 24 19 13 49 27 65 31 17 3 36 13 43 21 19
23 163 19 203 -5 17 -10 45 -22 63 -26 17 -3 37 -13 43 -20 7 -8 28 -17 49
-21 20 -4 51 -16 70 -27 31 -19 50 -21 215 -21 173 0 192 2 246 32 8 5 42 21
75 37 33 15 78 36 100 48 75 38 279 31 378 -13 44 -20 117 -27 117 -11 0 6
-21 13 -47 17 -27 3 -60 12 -74 20 -14 7 -72 25 -129 39 -76 20 -114 25 -149
20 -54 -7 -160 -39 -216 -65 -22 -10 -58 -22 -80 -28 -22 -6 -58 -17 -80 -26
-52 -20 -178 -20 -230 0 -22 9 -65 22 -96 29 -31 7 -67 19 -80 28 -13 8 -41
18 -62 21 -21 4 -53 16 -70 27 -27 16 -51 19 -153 19 -112 0 -122 -2 -154 -25z"/>
<path d="M54340 31473 c-25 -9 -73 -19 -108 -23 -34 -4 -71 -15 -80 -24 -10
-8 -34 -21 -53 -27 -19 -7 -44 -20 -57 -30 -13 -10 -37 -21 -53 -24 -31 -7
-54 -42 -39 -59 13 -14 228 22 254 43 6 4 25 11 41 15 38 9 117 62 171 114 35
34 0 41 -76 15z"/>
<path d="M21700 30901 c-14 -4 -43 -15 -65 -25 -22 -10 -58 -26 -80 -37 -97
-44 -155 -67 -186 -74 -19 -4 -45 -15 -58 -24 -21 -13 -55 -16 -191 -16 -146
0 -173 3 -235 23 -165 55 -191 62 -215 62 -14 0 -43 9 -64 21 -21 11 -61 23
-90 25 -28 3 -73 13 -100 21 -35 11 -68 14 -115 9 -115 -12 -171 -22 -183 -34
-9 -9 13 -12 96 -12 138 0 205 -17 366 -94 14 -7 34 -17 45 -23 54 -30 109
-54 143 -62 20 -5 57 -17 82 -25 191 -65 316 -73 465 -30 102 29 103 29 207
78 42 20 82 43 88 51 7 8 18 15 25 15 7 0 24 9 39 21 35 27 170 69 224 69 24
0 67 -6 95 -14 29 -7 77 -19 107 -26 30 -7 71 -21 90 -30 45 -23 102 -29 107
-12 3 6 -1 12 -9 12 -7 0 -56 20 -108 44 -189 89 -216 96 -342 95 -62 -1 -124
-4 -138 -8z"/>
<path d="M16769 30620 c-43 -3 -83 -11 -90 -17 -8 -5 -29 -13 -47 -17 -19 -3
-46 -14 -60 -25 -15 -10 -38 -22 -52 -26 -13 -4 -38 -17 -55 -28 -16 -11 -41
-28 -55 -38 -14 -9 -41 -20 -60 -24 -19 -4 -51 -17 -70 -29 -32 -19 -49 -21
-205 -21 -145 1 -180 4 -235 22 -36 11 -83 25 -105 31 -22 6 -71 22 -110 37
-107 41 -244 74 -308 75 -72 0 -67 -15 11 -30 31 -6 72 -17 90 -25 18 -9 53
-20 77 -25 43 -10 178 -68 266 -115 26 -14 59 -25 74 -25 14 0 48 -9 74 -20
43 -19 63 -21 217 -17 201 4 248 16 404 98 152 81 217 96 370 84 68 -5 109
-13 146 -31 28 -13 56 -24 63 -24 6 0 23 -8 38 -17 23 -15 46 -25 148 -61 130
-47 181 -54 368 -50 120 2 189 7 198 15 8 6 32 14 54 18 22 4 51 15 65 24 14
10 42 23 62 30 20 7 42 19 48 27 7 7 18 14 24 14 7 0 27 11 46 25 19 14 47 25
62 25 16 0 54 9 85 20 69 24 192 27 270 6 29 -8 76 -17 105 -21 50 -6 84 -15
299 -79 48 -14 107 -26 130 -25 51 0 46 3 -86 44 -49 15 -112 36 -140 47 -27
11 -86 33 -130 49 -44 17 -96 38 -115 47 -29 14 -68 17 -235 17 -186 0 -202
-1 -235 -21 -19 -12 -50 -24 -68 -28 -19 -3 -45 -15 -59 -26 -14 -11 -33 -20
-42 -20 -9 0 -27 -7 -40 -17 -32 -22 -190 -53 -271 -53 -110 0 -289 28 -344
54 -122 57 -143 66 -158 66 -8 0 -27 9 -40 20 -14 10 -45 22 -69 26 -24 3 -62
12 -84 20 -48 17 -123 22 -226 14z"/>
<path d="M77785 30604 c-96 -15 -264 -66 -305 -94 -14 -9 -54 -27 -90 -40 -36
-13 -110 -45 -165 -71 -256 -120 -310 -133 -560 -133 -169 -1 -217 3 -309 22
-60 12 -123 29 -140 36 -17 8 -60 22 -94 30 -35 9 -96 29 -136 45 -67 27 -192
64 -326 96 -30 8 -67 18 -81 23 -14 6 -78 18 -142 27 -100 14 -139 15 -265 6
-197 -14 -377 -68 -445 -134 -23 -21 -26 -28 -12 -22 116 43 178 56 298 62
146 7 225 -3 362 -48 139 -45 205 -69 229 -83 11 -8 47 -22 78 -31 32 -10 63
-24 69 -31 6 -8 16 -14 22 -14 5 0 50 -20 100 -45 97 -49 128 -61 337 -131
201 -67 266 -78 475 -78 196 0 289 15 430 69 39 15 86 33 106 40 53 20 146 69
250 130 50 30 104 57 120 60 16 4 31 11 35 16 10 16 104 59 197 90 125 41 261
49 377 21 47 -11 105 -23 130 -27 45 -7 162 -42 255 -75 28 -10 73 -23 100
-30 96 -23 179 -40 182 -36 2 1 -23 17 -54 33 -32 17 -108 57 -168 90 -61 32
-133 67 -160 77 -28 11 -76 32 -108 48 -93 46 -224 87 -331 103 -116 17 -140
17 -261 -1z"/>
<path d="M47670 30335 c-140 -24 -313 -73 -364 -103 -18 -11 -50 -25 -72 -32
-21 -7 -52 -22 -69 -32 -45 -27 -89 -47 -205 -90 -170 -63 -228 -78 -360 -89
-105 -9 -143 -8 -235 5 -163 24 -213 35 -283 62 -34 13 -72 24 -85 24 -24 0
-114 28 -287 90 -229 81 -394 110 -622 110 -177 0 -322 -27 -423 -77 -98 -49
-112 -78 -27 -57 111 28 218 44 285 44 118 0 405 -69 513 -123 27 -13 70 -32
96 -42 26 -10 53 -24 59 -31 6 -8 30 -19 53 -25 37 -10 77 -27 241 -104 254
-119 637 -167 910 -115 135 27 278 73 330 109 22 15 108 60 190 101 83 40 151
77 153 82 5 11 116 61 195 87 50 17 102 24 195 28 113 4 144 2 288 -25 88 -17
191 -43 230 -57 38 -15 89 -33 114 -40 25 -7 65 -20 89 -29 24 -9 69 -19 100
-22 l56 -7 -40 28 c-22 15 -67 40 -100 55 -33 15 -139 66 -236 113 -97 47
-198 91 -225 98 -27 7 -56 16 -65 20 -24 12 -266 59 -297 58 -15 -1 -61 -7
-102 -14z"/>
<path d="M33040 30090 c-114 -18 -236 -54 -281 -83 -13 -9 -49 -25 -79 -37
-62 -24 -292 -125 -330 -145 -14 -7 -68 -26 -120 -41 -90 -27 -105 -29 -295
-29 -170 0 -216 4 -305 23 -58 12 -126 31 -152 42 -26 11 -55 20 -65 20 -10 0
-65 18 -123 39 -58 22 -134 47 -170 56 -36 9 -85 22 -110 30 -249 79 -419 99
-628 75 -151 -17 -280 -59 -364 -117 -41 -28 -52 -52 -15 -31 118 66 467 76
622 18 28 -10 86 -31 129 -46 44 -14 100 -37 124 -50 25 -13 51 -24 59 -24 8
0 42 -13 76 -29 34 -16 69 -32 77 -35 8 -3 40 -20 70 -37 92 -50 345 -140 492
-173 230 -53 542 -36 728 39 36 15 84 33 108 40 24 7 55 21 70 31 15 10 56 33
92 51 36 19 83 45 105 58 22 14 60 32 85 42 25 9 54 24 65 34 11 10 32 21 47
24 15 4 32 13 38 20 6 8 25 17 42 20 16 4 49 16 73 26 30 13 78 21 162 25 108
6 131 4 268 -25 83 -17 188 -45 235 -62 148 -53 343 -99 358 -84 3 3 0 5 -7 5
-7 0 -25 8 -39 18 -38 26 -272 148 -302 157 -14 4 -70 29 -125 56 -118 56
-238 93 -356 108 -106 14 -118 13 -259 -9z"/>
<path d="M69010 30100 c-121 -8 -179 -19 -245 -45 -65 -26 -420 -203 -481
-240 -166 -100 -523 -166 -699 -130 -39 8 -84 15 -101 15 -17 0 -57 9 -88 20
-31 10 -84 24 -117 30 -57 11 -223 62 -257 79 -46 24 -260 87 -408 120 -115
26 -311 44 -386 36 -31 -4 -83 -15 -115 -25 l-58 -19 95 -1 c197 -1 331 -26
510 -93 36 -13 79 -32 95 -41 17 -9 36 -16 43 -16 8 0 28 -6 45 -14 91 -41
123 -56 137 -66 20 -13 209 -100 218 -100 4 0 68 -20 142 -44 74 -24 176 -51
225 -60 167 -30 477 -21 580 18 22 8 48 15 57 16 34 0 187 64 363 150 99 49
196 92 215 96 19 3 53 15 77 25 58 25 192 42 272 34 36 -4 100 -16 141 -27 41
-11 91 -24 110 -28 48 -11 149 -47 182 -65 15 -9 44 -22 65 -30 21 -7 76 -30
123 -50 132 -56 389 -124 544 -145 149 -19 283 -21 411 -5 136 17 169 25 240
53 28 11 68 26 90 32 44 14 155 62 195 85 14 8 36 19 50 25 14 7 55 27 92 46
68 35 105 50 282 110 89 30 115 34 250 40 123 5 168 3 241 -11 102 -19 226
-48 300 -70 28 -7 91 -23 142 -35 86 -19 124 -30 293 -80 118 -35 275 -61 347
-58 76 3 88 19 21 31 -142 25 -475 130 -623 196 -87 39 -152 64 -205 77 -30 8
-63 19 -73 25 -23 13 -115 41 -232 71 -78 20 -113 23 -270 22 -192 -1 -226 -7
-405 -69 -41 -14 -95 -32 -120 -40 -46 -14 -167 -65 -277 -116 -34 -16 -66
-29 -71 -29 -5 0 -45 -12 -88 -27 -75 -25 -89 -26 -294 -27 -308 -1 -385 13
-659 123 -80 32 -164 64 -186 71 -22 7 -56 21 -75 31 -19 11 -43 19 -53 19
-10 0 -30 6 -45 14 -81 42 -358 110 -427 104 -11 0 -72 -4 -135 -8z"/>
<path d="M38756 29814 c-56 -12 -135 -34 -176 -48 -87 -30 -71 -23 -185 -85
-115 -63 -366 -188 -427 -212 -25 -10 -88 -28 -140 -41 -158 -39 -448 -28
-603 22 -33 10 -134 42 -225 70 -91 28 -228 71 -305 95 -335 106 -523 128
-730 84 -101 -21 -115 -25 -115 -37 0 -4 91 -7 202 -7 181 0 212 -2 283 -23
195 -55 238 -72 470 -182 22 -10 67 -30 100 -43 33 -14 103 -43 155 -65 120
-50 243 -87 345 -103 122 -20 472 -16 560 5 39 9 81 19 95 22 40 9 182 66 220
89 44 27 127 65 140 65 6 0 32 11 58 24 50 26 102 49 197 89 175 73 392 60
625 -38 30 -13 66 -26 80 -30 14 -4 30 -11 35 -15 6 -4 52 -22 104 -39 51 -18
114 -42 140 -55 173 -87 522 -145 799 -133 158 7 217 16 327 47 65 19 100 34
273 118 34 17 76 33 92 37 17 4 60 24 95 46 36 21 71 39 78 39 8 0 38 13 68
29 92 49 217 71 398 71 207 0 342 -21 556 -85 316 -94 636 -165 744 -165 55 0
89 16 50 24 -13 2 -58 11 -99 19 -126 24 -313 84 -426 137 -22 10 -58 22 -79
26 -35 6 -122 40 -168 65 -9 5 -47 21 -85 35 -286 110 -563 142 -817 96 -121
-23 -288 -77 -378 -123 -61 -32 -183 -79 -282 -109 -33 -10 -80 -25 -104 -34
-96 -35 -360 -43 -496 -16 -22 5 -76 16 -120 24 -134 28 -266 73 -470 161 -66
28 -154 62 -195 74 -41 13 -102 31 -135 41 -205 63 -349 72 -529 34z"/>
<path d="M24335 29593 c-182 -8 -331 -46 -441 -110 -27 -16 -110 -59 -184 -96
-74 -37 -160 -80 -190 -97 -68 -38 -174 -77 -237 -85 -27 -4 -72 -14 -101 -22
-39 -11 -88 -13 -190 -10 -248 8 -403 42 -767 172 -309 110 -628 158 -803 121
-37 -8 -84 -17 -104 -21 -86 -14 -28 -24 140 -24 169 0 217 -5 328 -32 53 -13
174 -58 239 -88 22 -11 65 -29 95 -41 59 -24 132 -57 250 -116 41 -20 89 -40
105 -45 17 -4 53 -15 80 -24 136 -44 178 -56 275 -74 186 -36 421 -29 592 17
120 33 258 81 287 100 14 10 60 33 101 51 41 19 82 39 90 46 8 6 62 29 120 50
58 21 123 45 145 53 59 23 280 22 360 -2 33 -10 83 -24 110 -31 93 -25 271
-93 327 -125 10 -6 23 -10 29 -10 6 0 34 -12 63 -26 48 -25 140 -52 321 -95
188 -45 426 -63 577 -44 138 18 194 30 256 54 29 12 60 21 68 21 17 0 65 21
209 90 55 26 138 66 185 89 47 23 92 41 99 41 8 0 28 9 46 20 18 11 66 29 107
40 40 11 89 25 108 30 19 5 101 10 181 10 169 0 285 -21 589 -106 52 -14 122
-32 155 -39 33 -7 94 -23 135 -34 41 -12 100 -28 130 -36 73 -20 224 -45 277
-45 79 0 100 24 31 35 -130 21 -428 107 -498 145 -12 6 -45 20 -73 30 -29 10
-108 39 -177 65 -213 79 -321 112 -435 136 -96 19 -128 21 -265 16 -101 -4
-181 -13 -230 -26 -117 -29 -438 -149 -530 -196 -72 -37 -219 -77 -332 -91
-190 -22 -440 4 -620 65 -119 40 -375 139 -419 162 -21 10 -45 19 -53 19 -9 0
-35 9 -58 19 -24 11 -73 29 -111 41 -70 21 -287 61 -315 58 -10 -1 -44 -3 -77
-5z"/>
<path d="M64885 29150 c-55 -10 -143 -43 -185 -69 -19 -11 -45 -21 -56 -21
-12 0 -32 -8 -45 -18 -66 -49 -293 -119 -416 -127 -110 -8 -311 15 -360 40
-15 8 -39 15 -53 15 -24 0 -137 32 -245 71 -82 29 -195 58 -275 70 -111 17
-297 5 -388 -24 -110 -36 -116 -51 -17 -41 187 20 383 -8 505 -72 25 -13 49
-24 54 -24 5 0 50 -20 100 -45 131 -65 214 -101 271 -119 28 -8 75 -23 105
-33 81 -26 383 -31 466 -8 32 9 75 20 95 25 19 5 60 23 90 39 30 16 90 48 134
71 43 23 90 50 103 61 14 10 29 19 34 19 6 0 22 8 36 18 50 34 180 66 272 66
97 0 264 -33 355 -69 70 -28 215 -66 215 -56 0 9 -37 28 -230 118 -41 19 -84
39 -95 45 -27 15 -152 57 -200 68 -47 11 -213 11 -270 0z"/>
<path d="M58622 28790 c-62 -5 -118 -12 -125 -18 -7 -5 -34 -17 -62 -27 -27
-10 -57 -24 -65 -31 -8 -7 -33 -16 -55 -20 -22 -4 -54 -18 -71 -31 -17 -12
-36 -23 -42 -23 -6 0 -17 -6 -24 -13 -7 -7 -44 -27 -83 -46 -38 -18 -81 -39
-95 -46 -25 -13 -148 -38 -243 -50 -55 -7 -229 18 -322 46 -33 9 -74 20 -92
24 -18 4 -50 15 -72 26 -22 10 -50 19 -63 19 -13 0 -32 6 -43 14 -74 52 -377
106 -505 90 -66 -8 -44 -22 36 -23 29 -1 95 -12 147 -26 91 -23 125 -36 243
-91 28 -13 54 -24 58 -24 5 0 20 -9 35 -19 15 -11 43 -22 63 -26 21 -4 42 -13
48 -20 7 -8 37 -19 68 -26 31 -6 69 -17 84 -25 14 -7 70 -24 125 -36 126 -29
327 -31 418 -5 142 41 227 73 335 125 244 116 347 140 466 104 38 -11 85 -23
104 -27 19 -4 51 -16 70 -26 19 -11 40 -19 46 -19 6 0 55 -20 110 -45 54 -25
109 -45 122 -45 12 0 47 -9 78 -19 115 -41 272 -66 409 -66 129 0 178 8 305
51 25 8 68 22 95 29 28 8 103 42 168 75 212 108 284 129 438 131 115 1 214
-13 302 -42 31 -10 66 -19 78 -19 11 0 30 -5 42 -12 12 -6 54 -20 92 -29 39
-10 113 -29 165 -43 167 -45 304 -46 153 -2 -72 21 -263 91 -320 117 -24 10
-48 19 -55 19 -7 0 -35 12 -63 25 -27 14 -66 25 -85 25 -19 0 -54 9 -77 19
-40 19 -119 33 -248 46 -71 7 -271 -18 -312 -38 -15 -8 -48 -18 -73 -21 -25
-4 -67 -17 -95 -31 -219 -104 -331 -135 -485 -135 -137 1 -325 41 -445 96 -89
40 -149 63 -184 70 -18 3 -52 15 -75 25 -22 10 -49 19 -59 19 -9 0 -36 9 -60
19 -38 17 -70 24 -162 35 -16 2 -81 0 -143 -4z"/>
<path d="M52254 26176 c-359 -59 -607 -263 -696 -572 -19 -67 -23 -102 -22
-229 0 -222 37 -343 147 -480 139 -173 264 -240 783 -416 395 -134 492 -180
603 -289 103 -102 144 -187 163 -333 23 -184 -28 -350 -148 -476 -99 -105
-202 -152 -381 -172 -393 -44 -731 176 -819 534 l-17 67 -165 0 -164 0 7 -46
c65 -436 427 -751 924 -805 207 -23 448 5 598 69 191 80 328 208 414 387 63
131 82 217 82 380 0 266 -62 424 -230 586 -131 127 -237 179 -668 326 -505
172 -621 236 -729 400 -91 137 -100 383 -20 543 94 187 295 290 565 290 214 0
371 -59 500 -190 81 -82 141 -176 169 -268 l18 -57 166 -3 167 -2 -7 37 c-46
253 -211 478 -445 607 -78 43 -154 70 -269 97 -111 26 -407 35 -526 15z"/>
<path d="M62004 26176 c-359 -59 -607 -263 -696 -572 -19 -67 -23 -102 -22
-229 0 -222 37 -343 147 -480 139 -173 264 -240 783 -416 395 -134 492 -180
603 -289 103 -102 144 -187 163 -333 23 -184 -28 -350 -148 -476 -99 -105
-202 -152 -381 -172 -393 -44 -731 176 -819 534 l-17 67 -165 0 -164 0 7 -46
c65 -436 427 -751 924 -805 207 -23 448 5 598 69 191 80 328 208 414 387 63
131 82 217 82 380 0 266 -62 424 -230 586 -131 127 -237 178 -664 325 -509
173 -624 237 -733 401 -91 137 -100 383 -20 543 94 187 295 290 565 290 214 0
371 -59 500 -190 81 -82 141 -176 169 -268 l18 -57 166 -3 167 -2 -7 37 c-53
295 -275 556 -562 660 -132 48 -226 64 -417 68 -121 3 -206 0 -261 -9z"/>
<path d="M68082 26178 c-249 -31 -520 -142 -719 -294 -93 -71 -244 -230 -309
-324 -228 -332 -328 -752 -283 -1191 22 -217 76 -408 169 -594 209 -419 563
-694 1028 -798 84 -18 128 -21 332 -22 210 0 246 2 338 23 314 70 531 188 747
406 131 132 204 233 284 392 237 475 238 1112 0 1585 -78 156 -161 271 -284
394 -293 294 -653 437 -1090 434 -77 -1 -173 -6 -213 -11z m403 -289 c391 -54
710 -282 890 -635 211 -413 199 -1022 -28 -1419 -147 -259 -375 -447 -647
-534 -230 -74 -498 -80 -743 -15 -111 29 -287 115 -378 184 -95 72 -226 214
-288 313 -144 233 -205 469 -205 792 1 275 39 455 139 661 171 353 487 589
865 649 106 16 294 18 395 4z"/>
<path d="M22423 25053 c3 -1092 4 -1109 25 -1207 29 -132 66 -243 115 -341
184 -371 572 -574 1057 -552 579 26 942 340 1052 912 21 107 22 137 25 1203
l4 1092 -155 0 -155 0 -4 -1072 c-3 -979 -4 -1081 -21 -1163 -51 -262 -154
-436 -325 -550 -133 -88 -278 -127 -476 -127 -262 0 -436 64 -595 222 -122
121 -193 282 -224 509 -14 95 -16 264 -16 1146 l0 1035 -155 0 -156 0 4 -1107z"/>
<path d="M30237 26153 c-4 -3 -7 -719 -7 -1590 l0 -1583 160 0 160 0 0 1590 0
1590 -153 0 c-85 0 -157 -3 -160 -7z"/>
<path d="M31880 26030 l0 -130 450 0 450 0 0 -1460 0 -1460 160 0 160 0 0
1460 0 1460 450 0 450 0 0 130 0 130 -1060 0 -1060 0 0 -130z"/>
<path d="M35327 26153 c-4 -3 -7 -719 -7 -1590 l0 -1583 845 0 845 0 0 130 0
130 -685 0 -685 0 2 608 c2 477 6 607 16 608 6 1 284 2 617 3 l605 1 0 120 0
120 -620 0 -620 0 0 600 0 600 685 0 685 0 0 130 0 130 -838 0 c-461 0 -842
-3 -845 -7z"/>
<path d="M38478 26154 c-5 -4 -8 -720 -8 -1591 l0 -1585 603 5 c639 4 682 7
900 58 210 49 416 144 579 266 357 269 548 708 548 1259 0 250 -36 473 -107
664 -46 124 -78 187 -152 297 -191 285 -510 492 -883 574 -205 45 -287 50
-893 56 -319 3 -583 2 -587 -3z m1288 -303 c546 -101 869 -405 987 -929 19
-86 22 -125 21 -352 0 -222 -3 -267 -21 -350 -114 -509 -428 -816 -938 -919
-156 -31 -313 -41 -682 -41 l-343 0 0 1311 0 1311 433 -5 c380 -4 445 -7 543
-26z"/>
<path d="M44390 26030 l0 -130 450 0 450 0 0 -1460 0 -1460 160 0 160 0 0
1460 0 1460 450 0 450 0 0 130 0 130 -1060 0 -1060 0 0 -130z"/>
<path d="M54790 26030 l0 -130 450 0 450 0 0 -1460 0 -1460 160 0 160 0 0
1460 0 1460 450 0 450 0 0 130 0 130 -1060 0 -1060 0 0 -130z"/>
<path d="M58237 26153 c-4 -3 -7 -719 -7 -1590 l0 -1583 845 0 845 0 0 130 0
130 -685 0 -685 0 2 608 3 607 618 0 617 0 0 123 0 122 -620 0 -620 0 0 600 0
600 685 0 685 0 0 130 0 130 -838 0 c-461 0 -842 -3 -845 -7z"/>
<path d="M71337 26153 c-4 -3 -7 -719 -7 -1590 l0 -1583 160 0 160 0 0 730 0
730 610 0 610 0 0 125 0 125 -610 0 -610 0 0 605 0 605 705 0 706 0 -3 128 -3
127 -856 3 c-470 1 -859 -1 -862 -5z"/>
<path d="M26270 24565 l0 -1585 160 0 160 0 2 1326 3 1326 869 -1326 868
-1326 159 0 159 0 0 1585 0 1585 -160 0 -160 0 -2 -1325 -3 -1324 -865 1324
-865 1324 -162 1 -163 0 0 -1585z"/>
<path d="M48182 24537 c-320 -849 -582 -1547 -582 -1551 0 -3 75 -5 166 -4
l166 3 143 385 143 385 724 3 724 2 138 -379 c76 -209 142 -384 146 -390 4 -8
58 -11 173 -9 l166 3 -583 1545 -583 1545 -179 3 -179 2 -583 -1543z m1078
328 c166 -456 305 -836 307 -842 4 -10 -125 -13 -627 -13 -598 0 -632 1 -625
18 5 12 505 1359 620 1671 3 8 9 11 14 5 4 -5 144 -382 311 -839z"/>
<path d="M29290 21524 c-582 -52 -1032 -174 -1497 -408 -797 -400 -1401 -1051
-1763 -1901 -288 -676 -398 -1511 -304 -2320 87 -759 361 -1456 797 -2029 598
-786 1514 -1304 2527 -1430 941 -117 1837 60 2585 512 932 563 1582 1545 1779
2687 54 316 61 411 61 830 0 409 -8 525 -57 810 -185 1096 -774 2040 -1633
2615 -503 337 -1051 537 -1685 615 -129 16 -692 29 -810 19z m530 -955 c277
-19 485 -60 740 -145 755 -252 1336 -816 1641 -1593 301 -766 319 -1809 43
-2601 -148 -425 -376 -796 -673 -1090 -200 -199 -409 -352 -648 -473 -407
-207 -760 -293 -1240 -304 -547 -12 -949 71 -1388 287 -279 137 -465 270 -676
480 -141 141 -227 245 -333 405 -288 433 -453 916 -518 1510 -17 158 -17 691
0 850 86 790 361 1415 835 1893 211 214 414 360 692 498 454 224 980 322 1525
283z"/>
<path d="M19346 21500 c-561 -44 -1037 -173 -1496 -405 -1042 -528 -1762
-1539 -1973 -2770 -135 -785 -81 -1648 147 -2337 359 -1084 1105 -1893 2118
-2297 472 -188 954 -274 1538 -274 468 0 811 46 1200 164 759 229 1439 717
1885 1355 351 501 576 1082 664 1716 19 132 21 198 21 618 l0 470 -1992 -2
-1993 -3 -3 -382 -2 -383 1561 0 1561 0 -7 -67 c-12 -122 -54 -349 -89 -485
-130 -503 -368 -934 -716 -1292 -635 -654 -1581 -928 -2596 -751 -573 101
-1059 349 -1455 744 -413 414 -677 936 -793 1571 -76 417 -86 934 -26 1360 91
649 341 1205 735 1640 339 373 801 648 1300 773 475 119 1044 119 1517 1 617
-155 1149 -527 1493 -1044 78 -117 195 -337 226 -422 l13 -38 538 0 c453 0
538 2 538 14 0 8 -22 81 -49 163 -264 809 -774 1448 -1495 1872 -432 254 -943
414 -1526 476 -170 19 -684 28 -844 15z"/>
<path d="M35990 17460 l0 -3970 1338 0 c1369 0 1570 4 1892 40 623 70 1192
245 1663 511 141 80 360 227 482 325 150 119 410 383 525 532 524 678 790
1546 790 2572 0 1074 -296 1992 -858 2660 -94 111 -315 330 -422 416 -533 431
-1211 712 -1990 823 -388 56 -342 54 -1937 58 l-1483 4 0 -3971z m2999 3046
c694 -82 1199 -269 1631 -604 107 -83 305 -281 394 -392 342 -432 538 -956
602 -1614 19 -192 21 -621 5 -811 -57 -645 -239 -1163 -560 -1590 -86 -114
-280 -317 -391 -410 -415 -345 -972 -562 -1640 -639 -248 -29 -489 -36 -1252
-36 l-758 0 0 3061 0 3060 913 -4 c779 -3 933 -6 1056 -21z"/>
<path d="M53180 21425 c0 -5 2872 -7859 2895 -7917 7 -17 47 -18 654 -18 l646
0 127 348 c69 191 710 1936 1423 3877 713 1942 1312 3572 1330 3623 l34 92
-557 0 -557 0 -875 -2428 c-1490 -4134 -1578 -4377 -1584 -4362 -3 8 -548
1538 -1210 3400 l-1204 3385 -561 3 c-309 1 -561 0 -561 -3z"/>
<path d="M71030 17460 l0 -3970 515 0 515 0 0 1625 0 1625 556 -2 557 -3 1036
-1622 1036 -1623 578 0 c547 0 577 1 568 18 -6 9 -491 746 -1079 1637 l-1069
1620 31 7 c17 4 94 19 171 34 886 169 1498 644 1759 1365 192 530 188 1285 -9
1814 -45 122 -139 312 -201 408 -340 525 -847 842 -1554 971 -337 62 -277 60
-1912 63 l-1498 4 0 -3971z m2965 3057 c415 -67 688 -186 903 -391 133 -128
221 -260 292 -440 137 -347 147 -905 24 -1282 -63 -193 -158 -350 -298 -490
-217 -216 -491 -340 -901 -407 -124 -20 -171 -21 -1042 -24 l-913 -4 0 1531 0
1531 918 -4 c788 -3 931 -6 1017 -20z"/>
<path d="M78720 17460 l0 -3970 515 0 515 0 0 3970 0 3970 -515 0 -515 0 0
-3970z"/>
<path d="M47522 21253 c-5 -16 -663 -1760 -1462 -3878 -799 -2117 -1455 -3858
-1457 -3867 -5 -17 26 -18 544 -18 l550 0 152 423 c84 232 234 646 333 920
l180 497 1747 -2 1746 -3 331 -915 331 -915 551 -3 552 -2 -29 77 c-16 43
-502 1338 -1081 2878 -578 1540 -1223 3258 -1433 3817 l-382 1018 -582 0 -581
0 -10 -27z m1317 -3130 c396 -1096 721 -1995 721 -1998 0 -3 -652 -5 -1450 -5
-1101 0 -1450 3 -1450 12 0 25 1444 3998 1451 3991 4 -5 331 -904 728 -2000z"/>
<path d="M64772 21253 c-5 -16 -663 -1760 -1462 -3878 -799 -2117 -1455 -3858
-1457 -3867 -5 -17 26 -18 544 -18 l550 0 152 423 c84 232 234 646 333 920
l180 497 1747 -2 1746 -3 331 -915 331 -915 552 -3 551 -2 -18 47 c-10 27
-668 1779 -1462 3895 l-1445 3848 -582 0 -581 0 -10 -27z m1317 -3130 c396
-1096 721 -1995 721 -1998 0 -3 -652 -5 -1450 -5 -1103 0 -1450 3 -1450 12 0
25 1444 3998 1451 3991 4 -5 331 -904 728 -2000z"/>
</g>
</svg>
