<?xml version="1.0" encoding="UTF-8" standalone="no"?><!DOCTYPE svg PUBLIC "-//W3C//DTD SVG 1.1//EN" "http://www.w3.org/Graphics/SVG/1.1/DTD/svg11.dtd"><svg width="100%" height="100%" viewBox="0 0 50 65" version="1.1" xmlns="http://www.w3.org/2000/svg" xmlns:xlink="http://www.w3.org/1999/xlink" xml:space="preserve" xmlns:serif="http://www.serif.com/" style="fill-rule:evenodd;clip-rule:evenodd;stroke-linejoin:round;stroke-miterlimit:1.41421;"><rect id="bean" x="0" y="0" width="50" height="65" style="fill:none;"/><g><g id="bean1" serif:id="bean"><path d="M17.105,24.906c0.878,-4.102 -3.427,-7.932 -2.437,-12.02c0.002,-0.008 0.004,-0.017 0.005,-0.025c0.68,-3.374 3.18,-5.721 7.969,-6.911c1.936,-0.503 3.965,-0.521 5.909,-0.054c7.435,1.73 12.298,8.934 13.947,17.442c0.561,2.852 0.304,5.804 -0.74,8.517c-1.512,3.937 -4.379,7.039 -8.392,9.34c-2.945,1.683 -6.175,2.811 -9.528,3.329c-9.578,1.516 -15.007,-0.787 -16.461,-5.924c-0.427,-1.463 -0.395,-3.022 0.093,-4.467c0.557,-1.663 1.787,-3.206 4.128,-4.27c3.763,-1.71 5.15,-3.287 5.507,-4.957Z" style="fill:#c8c9cd;fill-opacity:0.5;"/></g><g><path id="chart" d="M30.687,23.425l-4.328,0l0,-0.252c0,-0.123 -0.1,-0.224 -0.224,-0.224c-0.124,0 -0.224,0.101 -0.224,0.224l0,0.252l-4.328,0c-0.247,0 -0.448,0.201 -0.448,0.448l0,0.416c0,0.247 0.201,0.448 0.448,0.448l0.061,0l0,5.035c0,0.247 0.201,0.448 0.448,0.448l3.819,0l0,0.658l-1.66,1.217c-0.1,0.074 -0.121,0.214 -0.048,0.313c0.073,0.1 0.213,0.122 0.313,0.049l1.395,-1.024l0,0.843c0,0.124 0.1,0.224 0.224,0.224c0.124,0 0.224,-0.1 0.224,-0.224l0,-0.843l1.395,1.024c0.04,0.029 0.086,0.043 0.132,0.043c0.069,0 0.137,-0.032 0.181,-0.092c0.073,-0.099 0.052,-0.239 -0.048,-0.313l-1.66,-1.217l0,-0.658l3.819,0c0.247,0 0.448,-0.201 0.448,-0.448l0,-5.035l0.061,0c0.247,0 0.448,-0.201 0.448,-0.448l0,-0.416c0,-0.247 -0.201,-0.448 -0.448,-0.448Zm-0.509,6.347l-8.086,0l0,-5.035l8.086,0l0,5.035l0,0Zm0.509,-5.483l-9.104,0l0,-0.416l9.104,0l0,0.416l0,0Z" style="fill:#fff;fill-rule:nonzero;"/></g></g></svg>