<?xml version="1.0" encoding="UTF-8" standalone="no"?><!DOCTYPE svg PUBLIC "-//W3C//DTD SVG 1.1//EN" "http://www.w3.org/Graphics/SVG/1.1/DTD/svg11.dtd"><svg width="100%" height="100%" viewBox="0 0 50 65" version="1.1" xmlns="http://www.w3.org/2000/svg" xmlns:xlink="http://www.w3.org/1999/xlink" xml:space="preserve" xmlns:serif="http://www.serif.com/" style="fill-rule:evenodd;clip-rule:evenodd;stroke-linejoin:round;stroke-miterlimit:1.41421;"><rect id="bean" x="0" y="0" width="50" height="65" style="fill:none;"/><g><g id="bean1" serif:id="bean"><path d="M17.105,24.906c0.878,-4.102 -3.427,-7.932 -2.437,-12.02c0.002,-0.008 0.004,-0.017 0.005,-0.025c0.68,-3.374 3.18,-5.721 7.969,-6.911c1.936,-0.503 3.965,-0.521 5.909,-0.054c7.435,1.73 12.298,8.934 13.947,17.442c0.561,2.852 0.304,5.804 -0.74,8.517c-1.512,3.937 -4.379,7.039 -8.392,9.34c-2.945,1.683 -6.175,2.811 -9.528,3.329c-9.578,1.516 -15.007,-0.787 -16.461,-5.924c-0.427,-1.463 -0.395,-3.022 0.093,-4.467c0.557,-1.663 1.787,-3.206 4.128,-4.27c3.763,-1.71 5.15,-3.287 5.507,-4.957Z" style="fill:#c8c9cd;fill-opacity:0.5;"/></g><g><g id="eye"><path d="M33.556,27.023c-0.112,-0.153 -2.773,-3.741 -6.171,-3.741c-3.398,0 -6.059,3.588 -6.171,3.741c-0.105,0.145 -0.105,0.341 0,0.486c0.112,0.153 2.773,3.74 6.171,3.74c3.398,0 6.059,-3.587 6.171,-3.74c0.105,-0.145 0.105,-0.341 0,-0.486Zm-6.171,3.402c-2.503,0 -4.671,-2.381 -5.313,-3.159c0.641,-0.779 2.804,-3.159 5.313,-3.159c2.503,0 4.671,2.38 5.313,3.159c-0.641,0.779 -2.805,3.159 -5.313,3.159Z" style="fill:#fff;fill-rule:nonzero;"/><path d="M27.385,24.793c-1.363,0 -2.473,1.11 -2.473,2.473c0,1.363 1.11,2.472 2.473,2.472c1.363,0 2.472,-1.109 2.472,-2.472c0,-1.363 -1.109,-2.473 -2.472,-2.473Zm0,4.121c-0.909,0 -1.648,-0.739 -1.648,-1.648c0,-0.909 0.739,-1.648 1.648,-1.648c0.909,0 1.648,0.739 1.648,1.648c0,0.909 -0.739,1.648 -1.648,1.648Z" style="fill:#fff;fill-rule:nonzero;"/></g></g></g></svg>