<?xml version="1.0" encoding="UTF-8" standalone="no"?><!DOCTYPE svg PUBLIC "-//W3C//DTD SVG 1.1//EN" "http://www.w3.org/Graphics/SVG/1.1/DTD/svg11.dtd"><svg width="100%" height="100%" viewBox="0 0 50 65" version="1.1" xmlns="http://www.w3.org/2000/svg" xmlns:xlink="http://www.w3.org/1999/xlink" xml:space="preserve" xmlns:serif="http://www.serif.com/" style="fill-rule:evenodd;clip-rule:evenodd;stroke-linejoin:round;stroke-miterlimit:1.41421;"><rect id="bean" x="0" y="0" width="50" height="65" style="fill:none;"/><g><g id="bean1" serif:id="bean"><path d="M17.105,24.906c0.878,-4.102 -3.427,-7.932 -2.437,-12.02c0.002,-0.008 0.004,-0.017 0.005,-0.025c0.68,-3.374 3.18,-5.721 7.969,-6.911c1.936,-0.503 3.965,-0.521 5.909,-0.054c7.435,1.73 12.298,8.934 13.947,17.442c0.561,2.852 0.304,5.804 -0.74,8.517c-1.512,3.937 -4.379,7.039 -8.392,9.34c-2.945,1.683 -6.175,2.811 -9.528,3.329c-9.578,1.516 -15.007,-0.787 -16.461,-5.924c-0.427,-1.463 -0.395,-3.022 0.093,-4.467c0.557,-1.663 1.787,-3.206 4.128,-4.27c3.763,-1.71 5.15,-3.287 5.507,-4.957Z" style="fill:#c8c9cd;fill-opacity:0.5;"/></g><g><path id="star" d="M33.635,25.063l-4.539,-0.298l-1.711,-4.298l-1.711,4.298l-4.539,0.298l3.483,2.953l-1.143,4.484l3.91,-2.471l3.91,2.471l-1.143,-4.484l3.483,-2.953Zm-6.25,4.099l-2.746,1.736l0.802,-3.145l-2.455,-2.078l3.198,-0.21l1.201,-3.017l1.201,3.017l3.201,0.21l-2.458,2.077l0.802,3.146l-2.746,-1.736Z" style="fill:#fff;fill-rule:nonzero;"/></g></g></svg>