<?xml version="1.0" encoding="UTF-8" standalone="no"?><!DOCTYPE svg PUBLIC "-//W3C//DTD SVG 1.1//EN" "http://www.w3.org/Graphics/SVG/1.1/DTD/svg11.dtd"><svg width="100%" height="100%" viewBox="0 0 512 512" version="1.1" xmlns="http://www.w3.org/2000/svg" xmlns:xlink="http://www.w3.org/1999/xlink" xml:space="preserve" xmlns:serif="http://www.serif.com/" style="fill-rule:evenodd;clip-rule:evenodd;stroke-linejoin:round;stroke-miterlimit:1.41421;"><rect id="Artboard1" x="0" y="0" width="512" height="512" style="fill:none;"/><clipPath id="_clip1"><rect id="Artboard11" serif:id="Artboard1" x="0" y="0" width="512" height="512"/></clipPath><g clip-path="url(#_clip1)"><g><g id="bean"><path d="M170.516,212.38c-0.537,-53.059 -41.621,-72.173 -32.431,-124.085c5.627,-45.071 39.799,-70.87 100.607,-84.233c15.918,-3.522 32.35,-4.074 48.469,-1.63c97.062,14.84 161.721,93.619 173.706,217.071c1.235,12.635 1.3,25.358 0.194,38.005c-8.862,102.727 -78.83,160.192 -182.235,188.861c-3.686,1.015 -7.417,1.86 -11.181,2.532c-128.562,22.805 -204.965,-1.713 -217.17,-77.81c-0.336,-2.137 -0.448,-4.304 -0.334,-6.464c2.066,-37.549 21.956,-76.069 58.811,-87.414c45.955,-14.145 61.786,-42.779 61.564,-64.833Z" style="fill:#c8c9cd;fill-opacity:0.5;"/></g><g><path d="M282.365,303.667l-4.333,0l0,-21.233c0,-1.188 -0.978,-2.167 -2.167,-2.167c-1.189,0 -2.167,0.979 -2.167,2.167l0,21.233l-56.333,0l0,-43.333l18.027,0c1.188,0 2.166,-0.978 2.166,-2.167c0,-1.188 -0.978,-2.166 -2.166,-2.166l-20.194,0c-1.188,0 -2.166,0.978 -2.166,2.166l0,45.5l-4.334,0c-1.188,0 -2.166,0.979 -2.166,2.167l0,4.333c0,5.943 4.89,10.834 10.833,10.834l56.333,0c5.943,0 10.834,-4.891 10.834,-10.834l0,-4.333c0,-1.188 -0.978,-2.167 -2.167,-2.167Zm-2.167,6.5c0,3.566 -2.934,6.5 -6.5,6.5l-4.333,0l0,-2.166c0,-1.189 -0.978,-2.167 -2.167,-2.167c-1.188,0 -2.166,0.978 -2.166,2.167l0,2.166l-39,0l0,-2.166c0,-1.189 -0.978,-2.167 -2.167,-2.167c-1.189,0 -2.167,0.978 -2.167,2.167l0,2.166l-4.333,0c-3.566,0 -6.5,-2.934 -6.5,-6.5l0,-2.166l69.333,0l0,2.166Z" style="fill:#fff;fill-rule:nonzero;"/><path d="M319.198,204.001l4.334,0c1.188,0 2.166,-0.978 2.166,-2.167c0,-1.188 -0.978,-2.167 -2.166,-2.167l-4.334,0c-3.566,0 -6.5,2.935 -6.5,6.5l0,2.167l-2.166,0c-1.189,0 -2.167,0.978 -2.167,2.167c0,1.188 0.978,2.166 2.167,2.166l2.166,0l0,6.5c0,1.189 0.978,2.167 2.167,2.167c1.189,0 2.167,-0.978 2.167,-2.167l0,-6.5l2.166,0c1.189,0 2.167,-0.978 2.167,-2.166c0,-1.189 -0.978,-2.167 -2.167,-2.167l-2.166,0l0,-2.167c0,-1.188 0.978,-2.166 2.166,-2.166Z" style="fill:#fff;fill-rule:nonzero;"/><path d="M330.032,191.001l-26,0c-3.566,0 -6.5,2.934 -6.5,6.5l0,4.333c0,1.189 0.978,2.167 2.166,2.167c1.189,0 2.167,-0.978 2.167,-2.167l0,-4.333c0,-1.189 0.978,-2.167 2.167,-2.167l26,0c1.188,0 2.166,0.978 2.166,2.167l0,26c0,1.188 -0.978,2.166 -2.166,2.166l-26,0c-1.189,0 -2.167,-0.978 -2.167,-2.166l0,-13c0,-1.189 -0.978,-2.167 -2.167,-2.167c-1.188,0 -2.166,0.978 -2.166,2.167l0,13c0,3.566 2.934,6.5 6.5,6.5l26,0c3.565,0 6.5,-2.934 6.5,-6.5l0,-26c0,-3.566 -2.935,-6.5 -6.5,-6.5Z" style="fill:#fff;fill-rule:nonzero;"/><path d="M308.365,277.667c0,4.755 3.912,8.667 8.667,8.667c4.754,0 8.666,-3.912 8.666,-8.667c0,-4.754 -3.912,-8.666 -8.666,-8.666c-4.755,0 -8.667,3.912 -8.667,8.666Zm13,0c0,2.378 -1.956,4.334 -4.333,4.334c-2.378,0 -4.334,-1.956 -4.334,-4.334c0,-2.377 1.956,-4.333 4.334,-4.333c2.377,0 4.333,1.956 4.333,4.333Z" style="fill:#fff;fill-rule:nonzero;"/><path d="M330.032,258.167l-26,0c-3.566,0 -6.5,2.935 -6.5,6.5l0,26c0,3.566 2.934,6.5 6.5,6.5l26,0c3.565,0 6.5,-2.934 6.5,-6.5l0,-4.333c0,-1.188 -0.978,-2.167 -2.167,-2.167c-1.189,0 -2.167,0.979 -2.167,2.167l0,4.333c0,1.189 -0.978,2.167 -2.166,2.167l-26,0c-1.189,0 -2.167,-0.978 -2.167,-2.167l0,-26c0,-1.188 0.978,-2.166 2.167,-2.166l26,0c1.188,0 2.166,0.978 2.166,2.166l0,13c0,1.189 0.978,2.167 2.167,2.167c1.189,0 2.167,-0.978 2.167,-2.167l0,-13c0,-3.565 -2.935,-6.5 -6.5,-6.5Z" style="fill:#fff;fill-rule:nonzero;"/><path d="M255.217,216.676c0.344,0.213 0.742,0.326 1.148,0.325c0.339,-0.002 0.673,-0.084 0.975,-0.239l13,-6.5c0.722,-0.37 1.179,-1.116 1.179,-1.928c0,-0.812 -0.457,-1.558 -1.179,-1.928l-13,-6.5c-0.302,-0.153 -0.636,-0.232 -0.975,-0.232c-1.186,0 -2.163,0.974 -2.167,2.16l0,13c-0.001,0.748 0.384,1.445 1.019,1.842Zm3.315,-11.332l5.98,2.99l-5.98,2.99l0,-5.98Z" style="fill:#fff;fill-rule:nonzero;"/><path d="M260.698,227.834c10.698,0 19.5,-8.802 19.5,-19.5c0,-10.697 -8.802,-19.5 -19.5,-19.5c-10.697,0 -19.5,8.803 -19.5,19.5c0,10.698 8.803,19.5 19.5,19.5Zm0,-34.667c8.32,0 15.167,6.847 15.167,15.167c0,8.32 -6.847,15.167 -15.167,15.167c-8.32,0 -15.166,-6.847 -15.166,-15.167c0,-8.32 6.846,-15.167 15.166,-15.167Z" style="fill:#fff;fill-rule:nonzero;"/><path d="M282.365,236.501c0.681,0 1.324,-0.322 1.733,-0.867l6.5,-8.667c0.281,-0.375 0.434,-0.831 0.434,-1.3c0,-1.188 -0.978,-2.166 -2.167,-2.166c-0.682,0 -1.325,0.321 -1.733,0.866l-6.5,8.667c-0.714,0.951 -0.518,2.32 0.433,3.033c0.375,0.282 0.831,0.434 1.3,0.434Z" style="fill:#fff;fill-rule:nonzero;"/><path d="M287.132,244.301c0.408,0.545 1.051,0.866 1.733,0.866c0.469,0 0.925,-0.152 1.3,-0.433l8.667,-6.5c0.545,-0.409 0.866,-1.052 0.866,-1.733c0,-1.189 -0.978,-2.167 -2.166,-2.167c-0.469,0 -0.925,0.152 -1.3,0.433l-8.667,6.5c-0.951,0.714 -1.147,2.083 -0.433,3.034Z" style="fill:#fff;fill-rule:nonzero;"/><path d="M308.365,249.067c-0.184,-1.028 -1.088,-1.784 -2.133,-1.784c-0.157,0 -0.314,0.017 -0.467,0.051l-10.833,2.167c-1.108,0.111 -1.961,1.053 -1.961,2.166c0,1.195 0.983,2.178 2.177,2.178c0.073,0 0.145,-0.004 0.217,-0.011l0.433,0l10.834,-2.167c1.028,-0.184 1.784,-1.087 1.784,-2.132c0,-0.157 -0.017,-0.314 -0.051,-0.468Z" style="fill:#fff;fill-rule:nonzero;"/><path d="M208.698,249.501l26,0c1.189,0 2.167,-0.978 2.167,-2.167l0,-34.667c0,-1.188 -0.978,-2.166 -2.167,-2.166l-26,0c-1.188,0 -2.166,0.978 -2.166,2.166l0,34.667c0,1.189 0.978,2.167 2.166,2.167Zm2.167,-34.667l21.667,0l0,30.333l-21.667,0l0,-30.333Z" style="fill:#fff;fill-rule:nonzero;"/><path d="M226.032,219.167l-4.334,0c-1.188,0 -2.166,0.979 -2.166,2.167c0,1.189 0.978,2.167 2.166,2.167l4.334,0c1.188,0 2.166,-0.978 2.166,-2.167c0,-1.188 -0.978,-2.167 -2.166,-2.167Z" style="fill:#fff;fill-rule:nonzero;"/><path d="M226.032,227.834l-8.667,0c-1.189,0 -2.167,0.978 -2.167,2.167c0,1.188 0.978,2.166 2.167,2.166l8.667,0c1.188,0 2.166,-0.978 2.166,-2.166c0,-1.189 -0.978,-2.167 -2.166,-2.167Z" style="fill:#fff;fill-rule:nonzero;"/><path d="M226.032,236.501l-8.667,0c-1.189,0 -2.167,0.978 -2.167,2.166c0,1.189 0.978,2.167 2.167,2.167l8.667,0c1.188,0 2.166,-0.978 2.166,-2.167c0,-1.188 -0.978,-2.166 -2.166,-2.166Z" style="fill:#fff;fill-rule:nonzero;"/><path d="M280.458,248.851c-0.387,-0.674 -1.107,-1.091 -1.885,-1.091c-1.192,0 -2.174,0.981 -2.174,2.174c0,0.38 0.1,0.754 0.289,1.083l9.555,16.532l-34.666,13l-0.152,0l-0.173,0l-5.634,3.25l-3.748,2.167c-0.996,0.576 -2.182,0.732 -3.293,0.433c-1.106,-0.299 -2.049,-1.023 -2.622,-2.015l-4.333,-7.497c-1.053,-2.024 -0.335,-4.551 1.625,-5.72l7.496,-4.333l5.417,9.382c0.388,0.672 1.109,1.086 1.885,1.083c0.003,0 0.006,0 0.009,0c1.188,0 2.166,-0.978 2.166,-2.167c0,-0.38 -0.1,-0.754 -0.29,-1.083l-5.59,-9.663l27.192,-22.425l0.888,1.538c0.387,0.674 1.108,1.091 1.885,1.091c1.193,0 2.174,-0.982 2.174,-2.174c0,-0.38 -0.1,-0.754 -0.289,-1.084l-2.167,-3.748c-0.321,-0.549 -0.868,-0.93 -1.495,-1.04c-0.63,-0.119 -1.281,0.048 -1.776,0.455l-30.334,25.003l-9.23,5.33c-3.395,1.978 -5.041,6.03 -3.986,9.815l-2.167,1.235c-2.016,1.158 -3.263,3.312 -3.263,5.637c0,2.935 1.987,5.523 4.823,6.28c0.551,0.146 1.12,0.219 1.69,0.217c1.14,-0.005 2.259,-0.303 3.25,-0.867l2.167,-1.235c1.04,1.075 2.349,1.853 3.791,2.253c0.741,0.208 1.506,0.31 2.275,0.304c1.523,0.003 3.019,-0.401 4.334,-1.17l1.885,-1.084l4.333,7.519c1.781,3.079 5.776,4.154 8.862,2.383c2.011,-1.159 3.255,-3.311 3.255,-5.632c0,-1.141 -0.301,-2.263 -0.872,-3.251l-3.943,-6.869l32.5,-12.198c0.596,-0.224 1.064,-0.7 1.278,-1.3c0.213,-0.593 0.158,-1.25 -0.152,-1.798l-10.79,-18.72Zm-51.176,37.028c-0.499,0.288 -1.091,0.366 -1.647,0.217c-0.555,-0.144 -1.031,-0.503 -1.322,-0.997c-0.288,-0.498 -0.366,-1.091 -0.216,-1.647c0.149,-0.558 0.516,-1.034 1.018,-1.321l1.885,-1.084l2.167,3.749l-1.885,1.083Zm28.513,6.067c0.288,0.498 0.366,1.091 0.217,1.646c-0.155,0.551 -0.521,1.019 -1.019,1.3c-1.023,0.588 -2.348,0.238 -2.946,-0.78l-4.334,-7.518l3.597,-2.058l0.173,0l4.312,7.41Z" style="fill:#fff;fill-rule:nonzero;"/></g></g></g></svg>