<?xml version="1.0" encoding="UTF-8" standalone="no"?><!DOCTYPE svg PUBLIC "-//W3C//DTD SVG 1.1//EN" "http://www.w3.org/Graphics/SVG/1.1/DTD/svg11.dtd"><svg width="100%" height="100%" viewBox="0 0 512 512" version="1.1" xmlns="http://www.w3.org/2000/svg" xmlns:xlink="http://www.w3.org/1999/xlink" xml:space="preserve" xmlns:serif="http://www.serif.com/" style="fill-rule:evenodd;clip-rule:evenodd;stroke-linejoin:round;stroke-miterlimit:1.41421;"><rect id="Artboard1" x="0" y="0" width="512" height="512" style="fill:none;"/><clipPath id="_clip1"><rect id="Artboard11" serif:id="Artboard1" x="0" y="0" width="512" height="512"/></clipPath><g clip-path="url(#_clip1)"><g><g id="bean"><path d="M170.516,212.38c-0.537,-53.059 -41.621,-72.173 -32.431,-124.085c5.627,-45.071 39.799,-70.87 100.607,-84.233c15.918,-3.522 32.35,-4.074 48.469,-1.63c97.062,14.84 161.721,93.619 173.706,217.071c1.235,12.635 1.3,25.358 0.194,38.005c-8.862,102.727 -78.83,160.192 -182.235,188.861c-3.686,1.015 -7.417,1.86 -11.181,2.532c-128.562,22.805 -204.965,-1.713 -217.17,-77.81c-0.336,-2.137 -0.448,-4.304 -0.334,-6.464c2.066,-37.549 21.956,-76.069 58.811,-87.414c45.955,-14.145 61.786,-42.779 61.564,-64.833Z" style="fill:#c8c9cd;fill-opacity:0.5;"/></g><g id="app"><path d="M305.67,169.354l-68.276,0c-8.747,0 -15.862,7.116 -15.862,15.862l0,121.57c0,8.746 7.115,15.862 15.862,15.862l68.275,0c8.747,0 15.863,-7.116 15.863,-15.862l0,-121.57c0,-8.746 -7.116,-15.862 -15.862,-15.862Zm-16.436,8.982l-1.153,2.747c-0.647,1.54 -2.144,2.535 -3.814,2.535l-25.471,0c-1.67,0 -3.167,-0.995 -3.814,-2.535l-1.153,-2.747l35.405,0Zm23.316,128.45c0,3.793 -3.087,6.88 -6.88,6.88l-68.276,0c-3.794,0 -6.88,-3.087 -6.88,-6.88l0,-121.57c0,-3.793 3.086,-6.88 6.88,-6.88l6.694,0l2.612,6.224c2.051,4.884 6.799,8.04 12.096,8.04l25.471,0c5.297,0 10.045,-3.156 12.095,-8.04l2.613,-6.224l6.695,0c3.793,0 6.88,3.087 6.88,6.88l0,121.57Z" style="fill:#fff;fill-rule:nonzero;"/><path d="M281.02,298.289l-18.977,0c-2.48,0 -4.491,2.01 -4.491,4.491c0,2.48 2.011,4.491 4.491,4.491l18.977,0c2.48,0 4.491,-2.011 4.491,-4.491c0,-2.481 -2.011,-4.491 -4.491,-4.491Z" style="fill:#fff;fill-rule:nonzero;"/><path d="M271.532,202.652c-10.987,0 -19.925,8.938 -19.925,19.924c0,4.269 1.35,8.229 3.645,11.475c-2.348,3.334 -3.645,7.344 -3.645,11.484c0,4.269 1.35,8.229 3.645,11.476c-2.349,3.333 -3.645,7.343 -3.645,11.483c0,10.987 8.938,19.925 19.925,19.925c10.986,0 19.924,-8.938 19.924,-19.925c0,-4.14 -1.297,-8.15 -3.645,-11.483c2.295,-3.247 3.645,-7.207 3.645,-11.476c0,-4.14 -1.297,-8.15 -3.645,-11.484c2.295,-3.246 3.645,-7.206 3.645,-11.475c0,-10.986 -8.938,-19.924 -19.924,-19.924Zm10.942,42.883c0,6.033 -4.909,10.942 -10.942,10.942c-6.034,0 -10.943,-4.909 -10.943,-10.942c0,-1.927 0.512,-3.802 1.453,-5.444c2.823,1.536 6.056,2.409 9.49,2.409c3.433,0 6.666,-0.873 9.489,-2.409c0.941,1.642 1.453,3.518 1.453,5.444Zm-10.942,-33.901c6.033,0 10.942,4.908 10.942,10.942c0,6.033 -4.909,10.942 -10.942,10.942c-6.034,0 -10.943,-4.909 -10.943,-10.942c0,-6.034 4.909,-10.942 10.943,-10.942Zm0,67.802c-6.034,0 -10.943,-4.908 -10.943,-10.942c0,-1.926 0.512,-3.802 1.453,-5.444c2.823,1.536 6.056,2.409 9.49,2.409c3.433,0 6.666,-0.873 9.489,-2.409c0.941,1.642 1.453,3.518 1.453,5.444c0,6.034 -4.909,10.942 -10.942,10.942Z" style="fill:#fff;fill-rule:nonzero;"/></g></g></g></svg>