<?xml version="1.0" encoding="UTF-8" standalone="no"?><!DOCTYPE svg PUBLIC "-//W3C//DTD SVG 1.1//EN" "http://www.w3.org/Graphics/SVG/1.1/DTD/svg11.dtd"><svg width="100%" height="100%" viewBox="0 0 512 512" version="1.1" xmlns="http://www.w3.org/2000/svg" xmlns:xlink="http://www.w3.org/1999/xlink" xml:space="preserve" xmlns:serif="http://www.serif.com/" style="fill-rule:evenodd;clip-rule:evenodd;stroke-linejoin:round;stroke-miterlimit:1.41421;"><rect id="Artboard1" x="0" y="0" width="512" height="512" style="fill:none;"/><clipPath id="_clip1"><rect id="Artboard11" serif:id="Artboard1" x="0" y="0" width="512" height="512"/></clipPath><g clip-path="url(#_clip1)"><g><g id="bean"><path d="M170.516,212.38c-0.537,-53.059 -41.621,-72.173 -32.431,-124.085c5.627,-45.071 39.799,-70.87 100.607,-84.233c15.918,-3.522 32.35,-4.074 48.469,-1.63c97.062,14.84 161.721,93.619 173.706,217.071c1.235,12.635 1.3,25.358 0.194,38.005c-8.862,102.727 -78.83,160.192 -182.235,188.861c-3.686,1.015 -7.417,1.86 -11.181,2.532c-128.562,22.805 -204.965,-1.713 -217.17,-77.81c-0.336,-2.137 -0.448,-4.304 -0.334,-6.464c2.066,-37.549 21.956,-76.069 58.811,-87.414c45.955,-14.145 61.786,-42.779 61.564,-64.833Z" style="fill:#c8c9cd;fill-opacity:0.5;"/></g><path d="M326.232,270.868c-0.005,-0.004 -0.005,-0.009 -0.009,-0.014c-0.005,-0.004 -0.01,-0.004 -0.014,-0.009l-6.61,-6.609c-0.002,-0.003 -0.002,-0.005 -0.005,-0.007c-0.002,-0.003 -0.004,-0.003 -0.007,-0.005l-24.855,-24.853l39.818,-39.818c0.033,-0.033 0.049,-0.079 0.08,-0.117c0.121,-0.138 0.22,-0.291 0.309,-0.457c0.037,-0.066 0.091,-0.119 0.119,-0.19c0.012,-0.028 0.015,-0.054 0.024,-0.082c0.009,-0.028 0.03,-0.049 0.04,-0.075l6.565,-19.821c0.03,-0.086 0.014,-0.176 0.032,-0.262c0.035,-0.157 0.057,-0.312 0.057,-0.474c0,-0.161 -0.024,-0.316 -0.057,-0.473c-0.018,-0.087 -0.002,-0.176 -0.032,-0.263c-0.019,-0.054 -0.061,-0.091 -0.083,-0.145c-0.06,-0.15 -0.145,-0.279 -0.236,-0.415c-0.085,-0.124 -0.162,-0.243 -0.267,-0.344c-0.101,-0.101 -0.216,-0.178 -0.338,-0.26c-0.136,-0.092 -0.267,-0.176 -0.419,-0.239c-0.052,-0.024 -0.092,-0.066 -0.148,-0.085c-0.087,-0.03 -0.174,-0.014 -0.263,-0.033c-0.157,-0.035 -0.309,-0.058 -0.475,-0.058c-0.16,0 -0.31,0.023 -0.464,0.054c-0.089,0.018 -0.181,0.002 -0.27,0.032l-19.821,6.563c-0.019,0.007 -0.033,0.023 -0.049,0.028c-0.431,0.143 -0.792,0.398 -1.071,0.741l-39.623,39.62l-38.112,-38.111c-0.002,-0.002 -0.002,-0.005 -0.004,-0.007c-0.003,-0.002 -0.005,-0.002 -0.007,-0.005l-12.987,-12.986c-0.916,-0.917 -2.398,-0.917 -3.314,0l-26.517,26.517c-0.917,0.916 -0.917,2.397 0,3.314l51.11,51.109l-19.894,19.896c-0.002,0.003 -0.005,0.003 -0.007,0.005c-0.002,0.002 -0.002,0.005 -0.005,0.007l-6.618,6.619c-0.003,0.002 -0.005,0.002 -0.007,0.004c-0.003,0.003 -0.003,0.005 -0.005,0.008l-19.193,19.192c-0.005,0.005 -0.005,0.01 -0.009,0.012c-1.817,1.828 -1.817,4.795 0.009,6.619l9.942,9.942c0.914,0.914 2.114,1.371 3.314,1.371c1.2,0 2.4,-0.457 3.314,-1.371l45.734,-45.733l51.112,51.112c0.454,0.459 1.054,0.689 1.654,0.689c0.6,0 1.2,-0.23 1.657,-0.687l26.517,-26.517c0.917,-0.916 0.917,-2.398 0,-3.314l-19.612,-19.615Zm-82.888,13.266l-9.943,-9.942l46.413,-46.415c0.003,-0.003 0.005,-0.003 0.007,-0.005c0.003,-0.003 0.003,-0.005 0.005,-0.007l37.406,-37.406l0,7.535c0,1.296 1.048,2.344 2.344,2.344l7.666,0l-83.898,83.896Zm85.567,-100.101l4.587,4.587l-2.295,6.93l-9.288,0l0,-9.201l6.996,-2.316Zm6.239,-0.394l-1.256,-1.254l1.877,-0.621l-0.621,1.875Zm-132.96,16.224l23.203,-23.203l3.049,3.049l-1.657,1.657c-0.916,0.916 -0.916,2.398 0,3.314c0.457,0.457 1.057,0.687 1.657,0.687c0.6,0 1.2,-0.23 1.657,-0.687l1.657,-1.657l3.314,3.314l-4.973,4.976c-0.917,0.916 -0.917,2.397 0,3.314c0.457,0.457 1.057,0.686 1.657,0.686c0.6,0 1.2,-0.229 1.657,-0.686l4.973,-4.976l3.319,3.319l-1.659,1.657c-0.917,0.916 -0.917,2.397 0,3.314c0.457,0.457 1.057,0.687 1.657,0.687c0.6,0 1.2,-0.23 1.657,-0.687l1.659,-1.657l3.314,3.314l-4.976,4.976c-0.916,0.916 -0.916,2.397 0,3.314c0.457,0.457 1.057,0.686 1.657,0.686c0.6,0 1.2,-0.229 1.657,-0.686l4.976,-4.976l3.314,3.314l-1.657,1.657c-0.916,0.916 -0.916,2.398 0,3.314c0.457,0.457 1.057,0.687 1.657,0.687c0.6,0 1.2,-0.23 1.657,-0.687l1.657,-1.657l3.314,3.314l-4.976,4.976c-0.916,0.916 -0.916,2.397 0,3.314c0.457,0.457 1.057,0.686 1.657,0.686c0.6,0 1.2,-0.229 1.657,-0.686l4.976,-4.976l3.314,3.314l-1.657,1.657c-0.916,0.916 -0.916,2.398 0,3.314c0.457,0.457 1.057,0.687 1.657,0.687c0.6,0 1.2,-0.23 1.657,-0.687l1.66,-1.655l3.314,3.314l-23.203,23.203l-49.453,-49.452Zm13.664,111.758l-9.942,-9.942c0.002,-0.002 0.002,-0.005 0.004,-0.007l10.906,-10.905l9.942,9.944l-10.91,10.91Zm14.224,-14.224l-9.942,-9.944l3.319,-3.319c0.457,0.457 1.054,0.687 1.654,0.687c0.6,0 1.2,-0.23 1.657,-0.687c0.917,-0.917 0.917,-2.395 0,-3.312l3.319,-3.316l9.942,9.942l-3.316,3.316c-0.917,-0.916 -2.398,-0.916 -3.314,0c-0.917,0.917 -0.917,2.398 0,3.314l-3.319,3.319Zm87.592,17.946l-49.455,-49.455l23.203,-23.203l3.317,3.316l-1.66,1.657c-0.916,0.914 -0.916,2.398 0,3.314c0.457,0.457 1.057,0.687 1.657,0.687c0.6,0 1.2,-0.23 1.657,-0.687l1.66,-1.657l3.314,3.314l-4.976,4.976c-0.917,0.917 -0.917,2.398 0,3.314c0.457,0.457 1.057,0.687 1.657,0.687c0.6,0 1.2,-0.23 1.657,-0.687l4.976,-4.976l3.314,3.315l-1.657,1.657c-0.917,0.916 -0.917,2.397 0,3.314c0.457,0.457 1.057,0.686 1.657,0.686c0.6,0 1.2,-0.229 1.657,-0.686l1.657,-1.657l3.314,3.314l-4.974,4.975c-0.916,0.917 -0.916,2.398 0,3.314c0.457,0.457 1.057,0.687 1.657,0.687c0.6,0 1.2,-0.23 1.657,-0.687l4.974,-4.975l3.314,3.314l-1.657,1.661c-0.914,0.919 -0.914,2.4 0.002,3.317c0.457,0.454 1.057,0.684 1.657,0.684c0.6,0 1.203,-0.23 1.66,-0.687l1.657,-1.657l3.311,3.312l-4.975,4.973c-0.917,0.915 -0.917,2.398 0,3.315c0.457,0.457 1.057,0.686 1.657,0.686c0.6,0 1.2,-0.229 1.657,-0.686l4.975,-4.974l3.317,3.316l-1.66,1.658c-0.916,0.916 -0.916,2.397 0,3.314c0.457,0.457 1.057,0.686 1.657,0.686c0.6,0 1.2,-0.229 1.657,-0.686l1.66,-1.657l3.049,3.049l-23.201,23.205Z" style="fill:#fff;fill-rule:nonzero;"/></g></g></svg>