<?xml version="1.0" encoding="UTF-8" standalone="no"?><!DOCTYPE svg PUBLIC "-//W3C//DTD SVG 1.1//EN" "http://www.w3.org/Graphics/SVG/1.1/DTD/svg11.dtd"><svg width="100%" height="100%" viewBox="0 0 512 512" version="1.1" xmlns="http://www.w3.org/2000/svg" xmlns:xlink="http://www.w3.org/1999/xlink" xml:space="preserve" xmlns:serif="http://www.serif.com/" style="fill-rule:evenodd;clip-rule:evenodd;stroke-linejoin:round;stroke-miterlimit:1.41421;"><rect id="Artboard1" x="0" y="0" width="512" height="512" style="fill:none;"/><clipPath id="_clip1"><rect id="Artboard11" serif:id="Artboard1" x="0" y="0" width="512" height="512"/></clipPath><g clip-path="url(#_clip1)"><g><g id="bean"><path d="M170.516,212.38c-0.537,-53.059 -41.621,-72.173 -32.431,-124.085c5.627,-45.071 39.799,-70.87 100.607,-84.233c15.918,-3.522 32.35,-4.074 48.469,-1.63c97.062,14.84 161.721,93.619 173.706,217.071c1.235,12.635 1.3,25.358 0.194,38.005c-8.862,102.727 -78.83,160.192 -182.235,188.861c-3.686,1.015 -7.417,1.86 -11.181,2.532c-128.562,22.805 -204.965,-1.713 -217.17,-77.81c-0.336,-2.137 -0.448,-4.304 -0.334,-6.464c2.066,-37.549 21.956,-76.069 58.811,-87.414c45.955,-14.145 61.786,-42.779 61.564,-64.833Z" style="fill:#c8c9cd;fill-opacity:0.5;"/></g><g id="web"><path d="M266.162,282.124c-0.68,0 -1.365,-0.234 -1.924,-0.71l-19.229,-16.374c-0.664,-0.565 -1.045,-1.391 -1.045,-2.263c0,-0.871 0.383,-1.697 1.045,-2.262l19.229,-16.375c1.249,-1.064 3.125,-0.913 4.189,0.335c1.063,1.251 0.914,3.126 -0.336,4.189l-16.572,14.113l16.572,14.112c1.25,1.064 1.399,2.94 0.336,4.189c-0.588,0.691 -1.424,1.046 -2.265,1.046Z" style="fill:#fff;fill-rule:nonzero;"/><path d="M304.124,282.124c-0.841,0 -1.676,-0.355 -2.263,-1.046c-1.065,-1.249 -0.914,-3.125 0.334,-4.189l16.572,-14.112l-16.572,-14.113c-1.248,-1.063 -1.399,-2.938 -0.334,-4.189c1.062,-1.248 2.94,-1.399 4.187,-0.335l19.23,16.375c0.663,0.565 1.044,1.391 1.044,2.262c0,0.872 -0.381,1.698 -1.044,2.263l-19.23,16.374c-0.559,0.476 -1.244,0.71 -1.924,0.71Z" style="fill:#fff;fill-rule:nonzero;"/><path d="M278.336,294.406c-0.204,0 -0.41,-0.022 -0.617,-0.065c-1.605,-0.338 -2.634,-1.915 -2.295,-3.521l11.984,-56.901c0.339,-1.606 1.914,-2.634 3.521,-2.296c1.605,0.339 2.633,1.914 2.295,3.521l-11.985,56.902c-0.295,1.399 -1.529,2.36 -2.903,2.36Z" style="fill:#fff;fill-rule:nonzero;"/><path d="M355.19,325.406l-140.094,0c-11.001,0 -19.953,-8.95 -19.953,-19.953l0,-118.904c0,-11.001 8.952,-19.953 19.953,-19.953l140.094,0c11.001,0 19.953,8.952 19.953,19.953l0,118.904c0,11.003 -8.952,19.953 -19.953,19.953Zm-140.094,-152.867c-7.725,0 -14.01,6.285 -14.01,14.01l0,118.904c0,7.725 6.285,14.01 14.01,14.01l140.094,0c7.725,0 14.01,-6.285 14.01,-14.01l0,-118.904c0,-7.725 -6.285,-14.01 -14.01,-14.01l-140.094,0Z" style="fill:#fff;fill-rule:nonzero;"/><path d="M372.171,214.181l-174.056,0c-1.642,0 -2.972,-1.33 -2.972,-2.971c0,-1.64 1.33,-2.972 2.972,-2.972l174.056,0c1.642,0 2.972,1.332 2.972,2.972c0,1.641 -1.33,2.971 -2.972,2.971Z" style="fill:#fff;fill-rule:nonzero;"/><path d="M245.917,199.961c-5.184,0 -9.404,-4.22 -9.404,-9.404c0,-5.186 4.22,-9.404 9.404,-9.404c5.186,0 9.405,4.218 9.405,9.404c0,5.184 -4.219,9.404 -9.405,9.404Zm0,-12.865c-1.907,0 -3.461,1.552 -3.461,3.461c0,1.909 1.554,3.461 3.461,3.461c1.909,0 3.461,-1.552 3.461,-3.461c0,-1.909 -1.552,-3.461 -3.461,-3.461Z" style="fill:#fff;fill-rule:nonzero;"/><path d="M217.023,199.87c-5.186,0 -9.404,-4.219 -9.404,-9.404c0,-5.186 4.218,-9.404 9.404,-9.404c5.185,0 9.404,4.218 9.404,9.404c0,5.185 -4.219,9.404 -9.404,9.404Zm0,-12.865c-1.907,0 -3.461,1.554 -3.461,3.461c0,1.909 1.554,3.461 3.461,3.461c1.909,0 3.461,-1.552 3.461,-3.461c0,-1.907 -1.552,-3.461 -3.461,-3.461Z" style="fill:#fff;fill-rule:nonzero;"/><path d="M274.812,200.051c-5.184,0 -9.403,-4.219 -9.403,-9.404c0,-5.184 4.219,-9.403 9.403,-9.403c5.185,0 9.404,4.219 9.404,9.403c0,5.185 -4.219,9.404 -9.404,9.404Zm0,-12.865c-1.907,0 -3.459,1.552 -3.459,3.461c0,1.908 1.552,3.46 3.459,3.46c1.908,0 3.461,-1.552 3.461,-3.46c0,-1.909 -1.553,-3.461 -3.461,-3.461Z" style="fill:#fff;fill-rule:nonzero;"/></g></g></g></svg>