<?xml version="1.0" encoding="UTF-8" standalone="no"?><!DOCTYPE svg PUBLIC "-//W3C//DTD SVG 1.1//EN" "http://www.w3.org/Graphics/SVG/1.1/DTD/svg11.dtd"><svg width="100%" height="100%" viewBox="0 0 810 151" version="1.1" xmlns="http://www.w3.org/2000/svg" xmlns:xlink="http://www.w3.org/1999/xlink" xml:space="preserve" xmlns:serif="http://www.serif.com/" style="fill-rule:evenodd;clip-rule:evenodd;stroke-linejoin:round;stroke-miterlimit:1.41421;"><g id="logo-1" serif:id="logo 1"><rect x="0" y="0" width="810" height="150.075" style="fill:none;"/><g><path d="M112.331,2.835c-2.922,0.172 -5.027,0.516 -6.315,1.031c-1.29,0.516 -2.17,1.504 -2.643,2.965c-0.473,1.461 -0.709,3.824 -0.709,7.089l0,63.931c0,3.266 0.236,5.629 0.709,7.09c0.473,1.46 1.375,2.449 2.707,2.964c1.332,0.516 3.416,0.859 6.251,1.031l0,2.578c-4.726,-0.258 -11.471,-0.387 -20.236,-0.387c-9.194,0 -15.983,0.129 -20.365,0.387l0,-2.578c3.093,-0.172 5.349,-0.515 6.767,-1.031c1.417,-0.515 2.384,-1.504 2.9,-2.964c0.515,-1.461 0.773,-3.824 0.773,-7.09l0,-67.411l-31.063,81.203l-2.063,0l-34.801,-83.007l0,61.74c0,5.069 0.258,8.786 0.774,11.149c0.515,2.363 1.632,4.082 3.351,5.156c1.718,1.074 4.511,1.826 8.378,2.255l0,2.578c-3.351,-0.258 -7.992,-0.387 -13.921,-0.387c-4.726,0 -8.464,0.129 -11.214,0.387l0,-2.578c2.836,-0.429 4.92,-1.16 6.252,-2.191c1.332,-1.031 2.234,-2.664 2.706,-4.898c0.473,-2.234 0.709,-5.542 0.709,-9.925l0,-58.002c0,-3.265 -0.236,-5.628 -0.709,-7.089c-0.472,-1.461 -1.374,-2.449 -2.706,-2.965c-1.332,-0.515 -3.416,-0.859 -6.252,-1.031l0,-2.578c2.75,0.258 6.488,0.387 11.214,0.387c7.906,0 14.694,-0.129 20.365,-0.387l26.037,62.772l23.717,-62.385l9.151,0c8.765,0 15.51,-0.129 20.236,-0.387l0,2.578Z" style="fill:#0041d1;fill-rule:nonzero;"/><path d="M195.339,80.687c1.117,2.836 2.406,4.898 3.867,6.187c1.46,1.289 2.878,1.976 4.253,2.062l0,2.578c-5.156,-0.258 -11.686,-0.387 -19.592,-0.387c-8.764,0 -15.295,0.129 -19.592,0.387l0,-2.578c3.265,-0.172 5.586,-0.58 6.961,-1.224c1.375,-0.645 2.062,-1.783 2.062,-3.416c0,-1.547 -0.516,-3.609 -1.547,-6.187l-7.733,-21.138l-28.099,0l-3.351,8.893c-2.406,6.187 -3.609,10.956 -3.609,14.308c0,3.179 0.966,5.392 2.9,6.637c1.933,1.247 4.79,1.955 8.571,2.127l0,2.578c-5.843,-0.258 -11.17,-0.387 -15.983,-0.387c-3.952,0 -7.218,0.129 -9.796,0.387l0,-2.578c4.211,-0.773 7.906,-5.285 11.085,-13.534l29.388,-75.403c0.945,0.087 2.449,0.13 4.511,0.13c2.062,0 3.523,-0.043 4.383,-0.13l31.321,80.688Zm-32.224,-26.294l-12.76,-34.801l-13.405,34.801l26.165,0Z" style="fill:#0041d1;fill-rule:nonzero;"/><path d="M298.84,2.835c-2.921,0.172 -5.026,0.516 -6.316,1.031c-1.288,0.516 -2.169,1.504 -2.642,2.965c-0.472,1.461 -0.709,3.824 -0.709,7.089l0,63.931c0,3.266 0.237,5.629 0.709,7.09c0.473,1.46 1.354,2.449 2.642,2.964c1.29,0.516 3.395,0.859 6.316,1.031l0,2.578c-4.21,-0.258 -10.741,-0.387 -19.591,-0.387c-8.679,0 -15.425,0.129 -20.237,0.387l0,-2.578c2.836,-0.172 4.92,-0.515 6.251,-1.031c1.332,-0.515 2.235,-1.504 2.707,-2.964c0.473,-1.461 0.709,-3.824 0.709,-7.09l0,-30.934l-34.156,0l0,30.934c0,3.266 0.236,5.629 0.709,7.09c0.472,1.46 1.353,2.449 2.642,2.964c1.289,0.516 3.394,0.859 6.316,1.031l0,2.578c-4.641,-0.258 -11.129,-0.387 -19.463,-0.387c-9.195,0 -15.983,0.129 -20.365,0.387l0,-2.578c2.835,-0.172 4.919,-0.515 6.251,-1.031c1.332,-0.515 2.234,-1.504 2.707,-2.964c0.472,-1.461 0.708,-3.824 0.708,-7.09l0,-63.931c0,-3.265 -0.236,-5.628 -0.708,-7.089c-0.473,-1.461 -1.375,-2.449 -2.707,-2.965c-1.332,-0.515 -3.416,-0.859 -6.251,-1.031l0,-2.578c4.382,0.258 11.17,0.387 20.365,0.387c8.334,0 14.822,-0.129 19.463,-0.387l0,2.578c-2.922,0.172 -5.027,0.516 -6.316,1.031c-1.289,0.516 -2.17,1.504 -2.642,2.965c-0.473,1.461 -0.709,3.824 -0.709,7.089l0,30.419l34.156,0l0,-30.419c0,-3.265 -0.236,-5.628 -0.709,-7.089c-0.472,-1.461 -1.375,-2.449 -2.707,-2.965c-1.331,-0.515 -3.415,-0.859 -6.251,-1.031l0,-2.578c4.812,0.258 11.558,0.387 20.237,0.387c8.85,0 15.381,-0.129 19.591,-0.387l0,2.578Z" style="fill:#0041d1;fill-rule:nonzero;"/><path d="M381.848,80.687c1.117,2.836 2.406,4.898 3.867,6.187c1.461,1.289 2.879,1.976 4.254,2.062l0,2.578c-5.156,-0.258 -11.687,-0.387 -19.593,-0.387c-8.765,0 -15.295,0.129 -19.591,0.387l0,-2.578c3.265,-0.172 5.585,-0.58 6.96,-1.224c1.375,-0.645 2.062,-1.783 2.062,-3.416c0,-1.547 -0.515,-3.609 -1.547,-6.187l-7.733,-21.138l-28.099,0l-3.351,8.893c-2.406,6.187 -3.609,10.956 -3.609,14.308c0,3.179 0.966,5.392 2.9,6.637c1.933,1.247 4.79,1.955 8.571,2.127l0,2.578c-5.843,-0.258 -11.171,-0.387 -15.983,-0.387c-3.952,0 -7.218,0.129 -9.795,0.387l0,-2.578c4.21,-0.773 7.905,-5.285 11.084,-13.534l29.388,-75.403c0.945,0.087 2.449,0.13 4.512,0.13c2.062,0 3.523,-0.043 4.382,-0.13l31.321,80.688Zm-32.223,-26.294l-12.761,-34.801l-13.405,34.801l26.166,0Z" style="fill:#0041d1;fill-rule:nonzero;"/><path d="M457.121,0.644c3.953,0 7.218,-0.129 9.797,-0.387l0,2.578c-2.148,0.773 -4.255,2.406 -6.316,4.898c-2.06,2.492 -3.912,5.972 -5.541,10.441l-27.197,73.598c-0.949,-0.086 -2.451,-0.129 -4.512,-0.129c-1.977,0 -3.437,0.043 -4.383,0.129l-32.867,-80.687c-1.118,-2.836 -2.406,-4.898 -3.867,-6.187c-1.461,-1.29 -2.879,-1.977 -4.254,-2.063l0,-2.578c5.156,0.258 11.687,0.387 19.592,0.387c8.851,0 15.381,-0.129 19.592,-0.387l0,2.578c-3.266,0.172 -5.585,0.559 -6.96,1.161c-1.375,0.601 -2.063,1.804 -2.063,3.608c0,1.461 0.516,3.481 1.547,6.058l22.687,57.745l15.851,-42.793c2.409,-6.617 3.609,-11.858 3.609,-15.725c0,-3.437 -0.92,-5.929 -2.771,-7.476c-1.846,-1.547 -4.535,-2.406 -8.057,-2.578l0,-2.578c5.845,0.258 11.218,0.387 16.113,0.387Z" style="fill:#0041d1;fill-rule:nonzero;"/><path d="M540.643,71.922c0,7.906 0.303,14.436 0.902,19.592c-5.838,-0.258 -15.682,-0.387 -29.513,-0.387c-18.732,0 -32.738,0.129 -42.023,0.387l0,-2.578c2.841,-0.172 4.919,-0.515 6.252,-1.031c1.333,-0.515 2.235,-1.504 2.707,-2.964c0.471,-1.461 0.71,-3.824 0.71,-7.09l0,-63.931c0,-3.265 -0.239,-5.628 -0.71,-7.089c-0.472,-1.461 -1.374,-2.449 -2.707,-2.965c-1.333,-0.515 -3.411,-0.859 -6.252,-1.031l0,-2.578c9.285,0.258 23.291,0.387 42.023,0.387c12.632,0 21.608,-0.129 26.934,-0.387c-0.599,7.132 -0.896,13.491 -0.896,19.077c0,3.781 0.128,6.702 0.384,8.765l-2.963,0c-1.292,-9.195 -3.609,-15.639 -6.962,-19.335c-3.353,-3.694 -8.08,-5.542 -14.18,-5.542l-5.28,0c-2.666,0 -4.599,0.215 -5.804,0.644c-1.205,0.43 -2.02,1.268 -2.45,2.514c-0.425,1.246 -0.641,3.243 -0.641,5.993l0,31.966l4.122,0c4.558,0 8.015,-1.675 10.379,-5.027c2.363,-3.351 4.016,-7.347 4.959,-11.987l2.963,0c-0.256,3.609 -0.384,7.648 -0.384,12.116l0,6.187c0,4.382 0.256,10.483 0.774,18.303l-2.963,0c-1.804,-11.343 -7.049,-17.014 -15.728,-17.014l-4.122,0l0,32.481c0,2.75 0.216,4.748 0.641,5.994c0.43,1.246 1.245,2.083 2.45,2.513c1.205,0.43 3.138,0.644 5.804,0.644l6.316,0c6.101,0 11.019,-2.083 14.757,-6.251c3.737,-4.167 6.38,-11.235 7.928,-21.203l2.963,0c-0.256,2.836 -0.39,6.445 -0.39,10.827Z" style="fill:#0041d1;fill-rule:nonzero;"/><path d="M622.366,71.922c0,7.906 0.297,14.436 0.902,19.592c-5.844,-0.258 -15.682,-0.387 -29.519,-0.387c-18.732,0 -32.738,0.129 -42.017,0.387l0,-2.578c2.835,-0.172 4.919,-0.515 6.252,-1.031c1.327,-0.515 2.23,-1.504 2.701,-2.964c0.477,-1.461 0.71,-3.824 0.71,-7.09l0,-63.931c0,-3.265 -0.233,-5.628 -0.71,-7.089c-0.471,-1.461 -1.374,-2.449 -2.701,-2.965c-1.333,-0.515 -3.417,-0.859 -6.252,-1.031l0,-2.578c9.279,0.258 23.285,0.387 42.017,0.387c12.632,0 21.614,-0.129 26.94,-0.387c-0.605,7.132 -0.902,13.491 -0.902,19.077c0,3.781 0.128,6.702 0.384,8.765l-2.963,0c-1.286,-9.195 -3.609,-15.639 -6.962,-19.335c-3.347,-3.694 -8.074,-5.542 -14.174,-5.542l-5.286,0c-2.666,0 -4.598,0.215 -5.803,0.644c-1.2,0.43 -2.02,1.268 -2.445,2.514c-0.431,1.246 -0.646,3.243 -0.646,5.993l0,31.966l4.121,0c4.558,0 8.016,-1.675 10.379,-5.027c2.363,-3.351 4.017,-7.347 4.96,-11.987l2.968,0c-0.262,3.609 -0.39,7.648 -0.39,12.116l0,6.187c0,4.382 0.256,10.483 0.775,18.303l-2.963,0c-1.805,-11.343 -7.05,-17.014 -15.729,-17.014l-4.121,0l0,32.481c0,2.75 0.215,4.748 0.646,5.994c0.425,1.246 1.245,2.083 2.445,2.513c1.205,0.43 3.137,0.644 5.803,0.644l6.316,0c6.101,0 11.02,-2.083 14.757,-6.251c3.737,-4.167 6.38,-11.235 7.928,-21.203l2.963,0c-0.256,2.836 -0.384,6.445 -0.384,10.827Z" style="fill:#0041d1;fill-rule:nonzero;"/><path d="M720.836,85.843c-2.317,2.664 -4.808,4.575 -7.474,5.736c-2.666,1.16 -5.885,1.74 -9.669,1.74c-4.983,0 -8.912,-1.053 -11.794,-3.158c-2.875,-2.105 -4.744,-5.693 -5.605,-10.763l-2.317,-12.889c-1.118,-6.273 -2.474,-10.892 -4.063,-13.856c-1.59,-2.965 -4.232,-4.447 -7.929,-4.447l-8.376,0l0,29.645c0,3.266 0.238,5.629 0.71,7.09c0.471,1.46 1.35,2.449 2.643,2.964c1.286,0.516 3.393,0.859 6.316,1.031l0,2.578c-4.64,-0.258 -11.13,-0.387 -19.466,-0.387c-9.192,0 -15.979,0.129 -20.363,0.387l0,-2.578c2.835,-0.172 4.919,-0.515 6.252,-1.031c1.333,-0.515 2.236,-1.504 2.707,-2.964c0.472,-1.461 0.71,-3.824 0.71,-7.09l0,-63.931c0,-3.265 -0.238,-5.628 -0.71,-7.089c-0.471,-1.461 -1.374,-2.449 -2.707,-2.965c-1.333,-0.515 -3.417,-0.859 -6.252,-1.031l0,-2.578c4.384,0.258 10.915,0.387 19.594,0.387l14.303,-0.129c1.717,-0.085 3.696,-0.129 5.932,-0.129c11.857,0 20.769,1.934 26.742,5.801c5.972,3.866 8.959,9.409 8.959,16.627c0,6.101 -2.23,11.471 -6.701,16.111c-4.47,4.641 -11.857,7.563 -22.172,8.765c7.736,0.688 13.493,2.364 17.277,5.027c3.778,2.664 6.229,6.66 7.346,11.987l2.963,13.276c0.687,3.437 1.485,5.844 2.387,7.218c0.896,1.375 2.165,2.063 3.801,2.063c1.03,-0.086 1.909,-0.344 2.643,-0.774c0.727,-0.429 1.566,-1.16 2.509,-2.191l1.804,1.547Zm-49.235,-83.008c-2.323,0 -4.017,0.301 -5.093,0.903c-1.072,0.601 -1.822,1.675 -2.253,3.222c-0.431,1.546 -0.646,3.867 -0.646,6.96l0,31.708l5.541,0c7.05,0 11.881,-1.869 14.501,-5.607c2.619,-3.738 3.935,-9.001 3.935,-15.789c0,-7.046 -1.246,-12.374 -3.737,-15.983c-2.498,-3.609 -6.578,-5.414 -12.248,-5.414Z" style="fill:#0041d1;fill-rule:nonzero;"/><path d="M29.234,149.516l-29.233,0l0.115,-0.696c1.934,0 3.345,-0.367 4.235,-1.102c0.966,-0.812 1.45,-4.582 1.45,-11.31l0,-14.385c0,-4.137 -0.126,-6.969 -0.377,-8.497c-0.252,-1.527 -0.609,-2.484 -1.073,-2.871c-0.89,-0.735 -2.301,-1.102 -4.235,-1.102l-0.115,-0.638l27.086,0l0,8.352l-0.696,-0.116c0,-2.591 -1.362,-4.389 -4.089,-5.394c-2.726,-1.005 -6.892,-1.508 -12.499,-1.508l0,18.271c3.712,0 6.38,-0.194 8.004,-0.581c1.624,-0.386 2.668,-0.976 3.132,-1.769c0.464,-0.792 0.696,-2.117 0.696,-3.973l0.638,-0.116l0,14.095l-0.638,-0.116c0,-1.895 -0.232,-3.229 -0.696,-4.002c-0.464,-0.774 -1.508,-1.344 -3.132,-1.711c-1.624,-0.368 -4.292,-0.551 -8.004,-0.551l0,7.482c0,4.099 0.145,6.825 0.435,8.178c0.289,1.354 0.937,2.262 1.943,2.726c10.904,0 16.356,-2.32 16.356,-6.96l0.697,-0.116l0,8.41Z" style="fill:#0041d1;fill-rule:nonzero;"/><path d="M107.015,149.516l-27.726,0l0.117,-0.696c0.927,0 1.672,-0.038 2.233,-0.116c0.56,-0.077 1.072,-0.29 1.536,-0.638c0.464,-0.348 0.803,-0.744 1.015,-1.189c0.213,-0.445 0.397,-1.189 0.552,-2.233c0.193,-1.353 0.29,-4.099 0.29,-8.236l0,-14.385c0,-5.762 -0.271,-9.261 -0.812,-10.498c-0.503,-1.083 -1.354,-1.702 -2.552,-1.856c-0.581,-0.077 -1.335,-0.116 -2.262,-0.116l-0.117,-0.638l15.603,0l-0.116,0.638c-1.934,0 -3.345,0.367 -4.234,1.102c-0.967,0.812 -1.45,4.601 -1.45,11.368l0,15.255c0,4.176 0.135,6.95 0.406,8.323c0.27,1.373 0.908,2.291 1.914,2.755c9.976,0 14.965,-2.378 14.965,-7.134l0.638,-0.116l0,8.41Z" style="fill:#0041d1;fill-rule:nonzero;"/><path d="M184.099,149.516l-29.233,0l0.116,-0.696c1.934,0 3.345,-0.367 4.234,-1.102c0.967,-0.812 1.45,-4.582 1.45,-11.31l0,-14.385c0,-4.137 -0.125,-6.969 -0.377,-8.497c-0.251,-1.527 -0.609,-2.484 -1.073,-2.871c-0.889,-0.735 -2.3,-1.102 -4.234,-1.102l-0.116,-0.638l27.087,0l0,8.352l-0.696,-0.116c0,-2.591 -1.363,-4.389 -4.089,-5.394c-2.726,-1.005 -6.893,-1.508 -12.5,-1.508l0,18.271c3.712,0 6.381,-0.194 8.005,-0.581c1.624,-0.386 2.668,-0.976 3.132,-1.769c0.464,-0.792 0.696,-2.117 0.696,-3.973l0.638,-0.116l0,14.095l-0.638,-0.116c0,-1.895 -0.232,-3.229 -0.696,-4.002c-0.464,-0.774 -1.508,-1.344 -3.132,-1.711c-1.624,-0.368 -4.293,-0.551 -8.005,-0.551l0,7.482c0,4.099 0.145,6.825 0.436,8.178c0.29,1.354 0.937,2.262 1.943,2.726c10.904,0 16.356,-2.32 16.356,-6.96l0.696,-0.116l0,8.41Z" style="fill:#0041d1;fill-rule:nonzero;"/><path d="M270.755,145.05c-4.447,3.364 -9.774,5.046 -15.98,5.046c-6.207,0 -11.204,-1.991 -14.994,-5.974c-3.789,-3.983 -5.684,-8.952 -5.684,-14.906c0,-5.955 1.827,-10.915 5.481,-14.878c3.654,-3.964 8.575,-5.945 14.762,-5.945c2.861,0 5.723,0.387 8.584,1.16c2.862,0.773 5.027,1.566 6.496,2.378l0,7.424l-0.638,-0.116c-0.967,-3.48 -2.639,-5.935 -5.017,-7.366c-2.378,-1.431 -5.52,-2.146 -9.425,-2.146c-4.95,0 -8.72,1.788 -11.31,5.365c-2.591,3.577 -3.887,8.246 -3.887,14.007c0,5.762 1.373,10.421 4.118,13.979c2.746,3.558 6.593,5.336 11.543,5.336c3.557,0 6.525,-0.435 8.903,-1.305c2.378,-0.87 4.727,-2.136 7.048,-3.799l0,1.74Z" style="fill:#0041d1;fill-rule:nonzero;"/><path d="M316.866,108.915l33.409,0l0,8.352l-0.579,-0.116c0,-4.718 -4.679,-7.076 -14.037,-7.076l0,26.333c0,5.723 0.328,9.203 0.986,10.44c0.232,0.464 0.638,0.87 1.218,1.218c0.58,0.348 1.199,0.561 1.856,0.638c0.658,0.078 1.566,0.116 2.726,0.116l0.116,0.696l-17.864,0l0.116,-0.696c1.16,0 2.078,-0.029 2.755,-0.087c0.676,-0.058 1.295,-0.28 1.855,-0.667c0.562,-0.387 0.967,-0.793 1.219,-1.218c0.251,-0.425 0.474,-1.179 0.667,-2.262c0.193,-1.315 0.29,-4.041 0.29,-8.178l0,-26.333c-9.358,0 -14.037,2.358 -14.037,7.076l-0.696,0.116l0,-8.352Z" style="fill:#0041d1;fill-rule:nonzero;"/><path d="M427.189,149.516c-0.966,0 -1.927,-0.493 -2.874,-1.479c-0.947,-0.986 -1.798,-2.214 -2.552,-3.683c-0.754,-1.47 -1.633,-3.065 -2.639,-4.785c-1.006,-1.721 -2.011,-3.335 -3.016,-4.844c-1.006,-1.507 -2.282,-2.783 -3.828,-3.828c-1.547,-1.043 -3.19,-1.604 -4.931,-1.681l0,7.192c0,4.176 0.126,7.008 0.378,8.497c0.251,1.489 0.608,2.427 1.073,2.813c0.928,0.735 2.359,1.102 4.292,1.102l0.116,0.696l-15.544,0l0.115,-0.696c1.895,0 3.287,-0.348 4.176,-1.044c0.735,-0.58 1.161,-2.475 1.276,-5.684c0.078,-1.276 0.116,-3.171 0.116,-5.684l0,-14.675c0,-4.292 -0.116,-7.134 -0.348,-8.526c-0.232,-1.392 -0.58,-2.262 -1.044,-2.61c-0.889,-0.657 -2.281,-0.986 -4.176,-0.986l-0.115,-0.696l13.456,0c9.744,0 14.619,3.287 14.619,9.86c0,2.823 -0.998,5.191 -2.99,7.105c-1.991,1.914 -4.398,3.026 -7.221,3.336c2.823,1.662 5.433,4.717 7.83,9.164c0.928,1.74 1.916,3.402 2.958,4.988c2.282,3.635 5.221,5.452 8.819,5.452l0.116,0.696l-8.062,0Zm-19.84,-39.267l0,17.807l3.655,0c2.938,0 5.374,-0.755 7.308,-2.262c1.933,-1.509 2.9,-3.752 2.9,-6.729c0,-5.878 -3.364,-8.816 -10.092,-8.816l-3.771,0Z" style="fill:#0041d1;fill-rule:nonzero;"/><path d="M488.608,122.023l0,14.385c0,4.137 0.128,6.96 0.378,8.468c0.25,1.508 0.611,2.456 1.077,2.842c0.885,0.735 2.299,1.102 4.232,1.102l0.116,0.696l-15.658,0l0.11,-0.696c0.972,0 1.723,-0.038 2.265,-0.116c0.541,-0.077 1.053,-0.29 1.536,-0.638c0.484,-0.348 0.833,-0.744 1.042,-1.189c0.216,-0.445 0.402,-1.189 0.553,-2.233c0.192,-1.353 0.291,-4.099 0.291,-8.236l0,-14.385c0,-4.021 -0.116,-6.825 -0.349,-8.41c-0.233,-1.585 -0.576,-2.571 -1.042,-2.958c-0.931,-0.735 -2.357,-1.102 -4.296,-1.102l-0.11,-0.638l15.658,0l-0.116,0.638c-1.933,0 -3.347,0.367 -4.232,1.102c-0.972,0.812 -1.455,4.601 -1.455,11.368Z" style="fill:#0041d1;fill-rule:nonzero;"/><path d="M580.372,145.05c-4.447,3.364 -9.774,5.046 -15.979,5.046c-6.211,0 -11.206,-1.991 -14.995,-5.974c-3.79,-3.983 -5.687,-8.952 -5.687,-14.906c0,-5.955 1.827,-10.915 5.483,-14.878c3.656,-3.964 8.575,-5.945 14.763,-5.945c2.858,0 5.722,0.387 8.586,1.16c2.858,0.773 5.023,1.566 6.496,2.378l0,7.424l-0.64,-0.116c-0.966,-3.48 -2.637,-5.935 -5.018,-7.366c-2.381,-1.431 -5.518,-2.146 -9.424,-2.146c-4.948,0 -8.72,1.788 -11.311,5.365c-2.59,3.577 -3.888,8.246 -3.888,14.007c0,5.762 1.373,10.421 4.121,13.979c2.742,3.558 6.589,5.336 11.543,5.336c3.557,0 6.526,-0.435 8.901,-1.305c2.381,-0.87 4.727,-2.136 7.049,-3.799l0,1.74Z" style="fill:#0041d1;fill-rule:nonzero;"/><path d="M651.309,148.82c1.467,0 2.503,-0.116 3.102,-0.348c0.6,-0.232 0.897,-0.831 0.897,-1.798c0,-0.966 -1.025,-4.254 -3.074,-9.86l-17.69,0c-1.665,4.911 -2.492,7.994 -2.492,9.251c0,1.257 0.315,2.03 0.955,2.32c0.64,0.29 1.787,0.435 3.452,0.435l0.116,0.696l-13.051,0l0.117,-0.696c1.123,0 2.002,-0.096 2.637,-0.29c0.64,-0.193 1.333,-0.705 2.089,-1.537c0.751,-0.831 1.479,-2.04 2.172,-3.625c0.698,-1.586 1.531,-3.809 2.497,-6.67l5.163,-14.907c1.817,-5.259 2.725,-8.449 2.725,-9.57c0,-1.122 -0.268,-1.847 -0.809,-2.175c-0.542,-0.329 -1.59,-0.493 -3.132,-0.493l-0.117,-0.638l9.57,0l10.263,27.783c1.74,4.601 2.911,7.521 3.51,8.758c0.6,1.238 1.17,2.03 1.712,2.378c0.966,0.657 2.182,0.986 3.655,0.986l0.117,0.696l-14.501,0l0.117,-0.696Zm-8.121,-36.773l-8.179,23.375l16.759,0l-8.58,-23.375Z" style="fill:#0041d1;fill-rule:nonzero;"/><path d="M737.787,149.516l-27.726,0l0.117,-0.696c0.931,0 1.67,-0.038 2.235,-0.116c0.559,-0.077 1.071,-0.29 1.537,-0.638c0.466,-0.348 0.803,-0.744 1.013,-1.189c0.215,-0.445 0.396,-1.189 0.553,-2.233c0.192,-1.353 0.291,-4.099 0.291,-8.236l0,-14.385c0,-5.762 -0.274,-9.261 -0.815,-10.498c-0.501,-1.083 -1.351,-1.702 -2.55,-1.856c-0.582,-0.077 -1.333,-0.116 -2.264,-0.116l-0.117,-0.638l15.607,0l-0.117,0.638c-1.932,0 -3.347,0.367 -4.237,1.102c-0.967,0.812 -1.45,4.601 -1.45,11.368l0,15.255c0,4.176 0.134,6.95 0.408,8.323c0.267,1.373 0.908,2.291 1.915,2.755c9.977,0 14.966,-2.378 14.966,-7.134l0.634,-0.116l0,8.41Z" style="fill:#0041d1;fill-rule:nonzero;"/><path d="M787.494,137.22c0,3.75 0.92,6.612 2.759,8.584c1.834,1.972 4.087,2.958 6.753,2.958c2.672,0 4.855,-0.647 6.554,-1.943c1.706,-1.295 2.556,-3.335 2.556,-6.119c0,-2.513 -1.333,-4.756 -4.005,-6.728c-1.158,-0.851 -2.456,-1.692 -3.883,-2.523c-1.432,-0.832 -2.864,-1.692 -4.296,-2.581c-1.432,-0.89 -2.724,-1.818 -3.882,-2.785c-2.672,-2.242 -4.005,-4.862 -4.005,-7.859c0,-2.996 1.094,-5.384 3.277,-7.163c2.189,-1.779 5.088,-2.668 8.703,-2.668c3.615,0 6.967,0.792 10.059,2.378c0,1.933 -0.286,5.259 -0.868,9.976l-0.867,-0.232c0,-3.635 -0.891,-6.351 -2.672,-8.149c-1.776,-1.798 -3.819,-2.697 -6.118,-2.697c-2.299,0 -4.145,0.667 -5.536,2.001c-1.397,1.334 -2.09,2.91 -2.09,4.727c0,1.817 0.495,3.374 1.479,4.669c0.984,1.295 2.223,2.369 3.714,3.219c1.484,0.851 3.102,1.789 4.843,2.814c1.74,1.024 3.353,2.029 4.843,3.016c1.484,0.986 2.724,2.272 3.708,3.857c0.99,1.585 1.479,3.364 1.479,5.336c0,3.557 -1.264,6.245 -3.796,8.062c-2.532,1.817 -5.582,2.726 -9.139,2.726c-1.967,0 -3.993,-0.309 -6.06,-0.928c-2.066,-0.619 -3.76,-1.527 -5.076,-2.726c0,-2.475 0.233,-5.607 0.699,-9.396l0.867,0.174Z" style="fill:#0041d1;fill-rule:nonzero;"/></g></g></svg>