<?xml version="1.0" encoding="UTF-8" standalone="no"?>
<!DOCTYPE svg PUBLIC "-//W3C//DTD SVG 1.1//EN" "http://www.w3.org/Graphics/SVG/1.1/DTD/svg11.dtd">
<svg width="100%" height="100%" viewBox="0 0 810 151" version="1.1" xmlns="http://www.w3.org/2000/svg" xmlns:xlink="http://www.w3.org/1999/xlink" xml:space="preserve" xmlns:serif="http://www.serif.com/" style="fill-rule:evenodd;clip-rule:evenodd;stroke-linejoin:round;stroke-miterlimit:1.41421;">
    <g transform="matrix(0.75,0,0,0.75,-975,-192.009)">
        <g id="logo-1" serif:id="logo 1" transform="matrix(0.9,0,0,0.16675,1300,256.012)">
            <rect x="0" y="0" width="1200" height="1200" style="fill:none;"/>
            <clipPath id="_clip1">
                <rect x="0" y="0" width="1200" height="1200"/>
            </clipPath>
            <g clip-path="url(#_clip1)">
                <g transform="matrix(0.862391,0,0,4.65458,-232.856,-1004.44)">
                    <path d="M462.983,220.667C457.964,220.962 454.348,221.552 452.134,222.438C449.919,223.324 448.406,225.021 447.594,227.531C446.782,230.04 446.377,234.1 446.377,239.709L446.377,349.535C446.377,355.145 446.782,359.204 447.594,361.714C448.406,364.223 449.956,365.921 452.244,366.806C454.532,367.692 458.112,368.282 462.983,368.578L462.983,373.006C454.864,372.563 443.277,372.342 428.22,372.342C412.425,372.342 400.763,372.563 393.235,373.006L393.235,368.578C398.549,368.282 402.424,367.692 404.86,366.806C407.295,365.921 408.956,364.223 409.842,361.714C410.727,359.204 411.17,355.145 411.17,349.535L411.17,233.731L357.807,373.228L354.264,373.228L294.48,230.631L294.48,336.693C294.48,345.402 294.923,351.786 295.809,355.846C296.694,359.905 298.613,362.858 301.566,364.703C304.518,366.548 309.315,367.84 315.958,368.578L315.958,373.006C310.201,372.563 302.23,372.342 292.044,372.342C283.925,372.342 277.504,372.563 272.78,373.006L272.78,368.578C277.652,367.84 281.231,366.585 283.52,364.813C285.808,363.042 287.358,360.237 288.169,356.399C288.981,352.561 289.387,346.878 289.387,339.35L289.387,239.709C289.387,234.1 288.981,230.04 288.169,227.531C287.358,225.021 285.808,223.324 283.52,222.438C281.231,221.552 277.652,220.962 272.78,220.667L272.78,216.238C277.504,216.681 283.925,216.903 292.044,216.903C305.625,216.903 317.287,216.681 327.029,216.238L371.757,324.072L412.499,216.903L428.22,216.903C443.277,216.903 454.864,216.681 462.983,216.238L462.983,220.667Z" style="fill-rule:nonzero;"/>
                    <path d="M605.58,354.407C607.499,359.278 609.713,362.821 612.223,365.035C614.732,367.249 617.168,368.43 619.53,368.578L619.53,373.006C610.673,372.563 599.454,372.342 585.873,372.342C570.817,372.342 559.598,372.563 552.217,373.006L552.217,368.578C557.826,368.282 561.812,367.581 564.174,366.474C566.536,365.367 567.717,363.411 567.717,360.606C567.717,357.949 566.831,354.407 565.06,349.978L551.774,313.665L503.504,313.665L497.747,328.943C493.614,339.571 491.547,347.764 491.547,353.521C491.547,358.983 493.208,362.784 496.529,364.924C499.85,367.065 504.759,368.282 511.254,368.578L511.254,373.006C501.216,372.563 492.064,372.342 483.797,372.342C477.007,372.342 471.397,372.563 466.969,373.006L466.969,368.578C474.202,367.249 480.55,359.499 486.011,345.328L536.496,215.795C538.12,215.943 540.703,216.017 544.246,216.017C547.788,216.017 550.298,215.943 551.774,215.795L605.58,354.407ZM550.224,309.236L528.303,249.452L505.275,309.236L550.224,309.236Z" style="fill-rule:nonzero;"/>
                    <path d="M783.383,220.667C778.364,220.962 774.748,221.552 772.533,222.438C770.319,223.324 768.806,225.021 767.994,227.531C767.182,230.04 766.776,234.1 766.776,239.709L766.776,349.535C766.776,355.145 767.182,359.204 767.994,361.714C768.806,364.223 770.319,365.921 772.533,366.806C774.748,367.692 778.364,368.282 783.383,368.578L783.383,373.006C776.15,372.563 764.931,372.342 749.727,372.342C734.818,372.342 723.23,372.563 714.963,373.006L714.963,368.578C719.835,368.282 723.414,367.692 725.702,366.806C727.99,365.921 729.54,364.223 730.352,361.714C731.164,359.204 731.57,355.145 731.57,349.535L731.57,296.394L672.893,296.394L672.893,349.535C672.893,355.145 673.299,359.204 674.111,361.714C674.922,364.223 676.436,365.921 678.65,366.806C680.864,367.692 684.481,368.282 689.5,368.578L689.5,373.006C681.528,372.563 670.383,372.342 656.065,372.342C640.27,372.342 628.608,372.563 621.08,373.006L621.08,368.578C625.951,368.282 629.531,367.692 631.819,366.806C634.107,365.921 635.657,364.223 636.469,361.714C637.28,359.204 637.686,355.145 637.686,349.535L637.686,239.709C637.686,234.1 637.28,230.04 636.469,227.531C635.657,225.021 634.107,223.324 631.819,222.438C629.531,221.552 625.951,220.962 621.08,220.667L621.08,216.238C628.608,216.681 640.27,216.903 656.065,216.903C670.383,216.903 681.528,216.681 689.5,216.238L689.5,220.667C684.481,220.962 680.864,221.552 678.65,222.438C676.436,223.324 674.922,225.021 674.111,227.531C673.299,230.04 672.893,234.1 672.893,239.709L672.893,291.965L731.57,291.965L731.57,239.709C731.57,234.1 731.164,230.04 730.352,227.531C729.54,225.021 727.99,223.324 725.702,222.438C723.414,221.552 719.835,220.962 714.963,220.667L714.963,216.238C723.23,216.681 734.818,216.903 749.727,216.903C764.931,216.903 776.15,216.681 783.383,216.238L783.383,220.667Z" style="fill-rule:nonzero;"/>
                    <path d="M925.98,354.407C927.899,359.278 930.113,362.821 932.623,365.035C935.132,367.249 937.568,368.43 939.93,368.578L939.93,373.006C931.073,372.563 919.854,372.342 906.273,372.342C891.216,372.342 879.998,372.563 872.617,373.006L872.617,368.578C878.226,368.282 882.212,367.581 884.574,366.474C886.936,365.367 888.116,363.411 888.116,360.606C888.116,357.949 887.231,354.407 885.459,349.978L872.174,313.665L823.904,313.665L818.147,328.943C814.013,339.571 811.947,347.764 811.947,353.521C811.947,358.983 813.607,362.784 816.929,364.924C820.25,367.065 825.158,368.282 831.653,368.578L831.653,373.006C821.616,372.563 812.463,372.342 804.197,372.342C797.407,372.342 791.797,372.563 787.369,373.006L787.369,368.578C794.602,367.249 800.949,359.499 806.411,345.328L856.896,215.795C858.519,215.943 861.103,216.017 864.646,216.017C868.188,216.017 870.698,215.943 872.174,215.795L925.98,354.407ZM870.624,309.236L848.703,249.452L825.675,309.236L870.624,309.236Z" style="fill-rule:nonzero;"/>
                    <path d="M1055.29,216.903C1062.08,216.903 1067.69,216.681 1072.12,216.238L1072.12,220.667C1068.43,221.995 1064.81,224.8 1061.27,229.081C1057.73,233.362 1054.55,239.34 1051.75,247.016L1005.03,373.449C1003.4,373.301 1000.82,373.228 997.278,373.228C993.883,373.228 991.374,373.301 989.75,373.449L933.287,234.838C931.368,229.967 929.154,226.424 926.644,224.21C924.135,221.995 921.699,220.814 919.337,220.667L919.337,216.238C928.194,216.681 939.413,216.903 952.994,216.903C968.198,216.903 979.417,216.681 986.65,216.238L986.65,220.667C981.04,220.962 977.055,221.626 974.693,222.66C972.331,223.693 971.15,225.76 971.15,228.859C971.15,231.369 972.036,234.838 973.807,239.266L1012.78,338.464L1040.01,264.951C1044.15,253.585 1046.21,244.581 1046.21,237.938C1046.21,232.033 1044.63,227.752 1041.45,225.095C1038.28,222.438 1033.66,220.962 1027.61,220.667L1027.61,216.238C1037.65,216.681 1046.88,216.903 1055.29,216.903Z" style="fill-rule:nonzero;"/>
                    <path d="M1198.77,339.35C1198.77,352.93 1199.29,364.149 1200.32,373.006C1190.29,372.563 1173.38,372.342 1149.62,372.342C1117.44,372.342 1093.38,372.563 1077.43,373.006L1077.43,368.578C1082.31,368.282 1085.88,367.692 1088.17,366.806C1090.46,365.921 1092.01,364.223 1092.82,361.714C1093.63,359.204 1094.04,355.145 1094.04,349.535L1094.04,239.709C1094.04,234.1 1093.63,230.04 1092.82,227.531C1092.01,225.021 1090.46,223.324 1088.17,222.438C1085.88,221.552 1082.31,220.962 1077.43,220.667L1077.43,216.238C1093.38,216.681 1117.44,216.903 1149.62,216.903C1171.32,216.903 1186.74,216.681 1195.89,216.238C1194.86,228.49 1194.35,239.414 1194.35,249.009C1194.35,255.504 1194.57,260.523 1195.01,264.066L1189.92,264.066C1187.7,248.271 1183.72,237.2 1177.96,230.852C1172.2,224.505 1164.08,221.331 1153.6,221.331L1144.53,221.331C1139.95,221.331 1136.63,221.7 1134.56,222.438C1132.49,223.176 1131.09,224.615 1130.35,226.756C1129.62,228.896 1129.25,232.328 1129.25,237.052L1129.25,291.965L1136.33,291.965C1144.16,291.965 1150.1,289.087 1154.16,283.33C1158.22,277.573 1161.06,270.708 1162.68,262.737L1167.77,262.737C1167.33,268.937 1167.11,275.875 1167.11,283.551L1167.11,294.179C1167.11,301.708 1167.55,312.188 1168.44,325.622L1163.35,325.622C1160.25,306.136 1151.24,296.394 1136.33,296.394L1129.25,296.394L1129.25,352.192C1129.25,356.916 1129.62,360.348 1130.35,362.489C1131.09,364.629 1132.49,366.068 1134.56,366.806C1136.63,367.544 1139.95,367.913 1144.53,367.913L1155.38,367.913C1165.86,367.913 1174.31,364.334 1180.73,357.174C1187.15,350.015 1191.69,337.874 1194.35,320.75L1199.44,320.75C1199,325.622 1198.77,331.821 1198.77,339.35Z" style="fill-rule:nonzero;"/>
                    <path d="M1339.16,339.35C1339.16,352.93 1339.67,364.149 1340.71,373.006C1330.67,372.563 1313.77,372.342 1290,372.342C1257.82,372.342 1233.76,372.563 1217.82,373.006L1217.82,368.578C1222.69,368.282 1226.27,367.692 1228.56,366.806C1230.84,365.921 1232.39,364.223 1233.2,361.714C1234.02,359.204 1234.42,355.145 1234.42,349.535L1234.42,239.709C1234.42,234.1 1234.02,230.04 1233.2,227.531C1232.39,225.021 1230.84,223.324 1228.56,222.438C1226.27,221.552 1222.69,220.962 1217.82,220.667L1217.82,216.238C1233.76,216.681 1257.82,216.903 1290,216.903C1311.7,216.903 1327.13,216.681 1336.28,216.238C1335.24,228.49 1334.73,239.414 1334.73,249.009C1334.73,255.504 1334.95,260.523 1335.39,264.066L1330.3,264.066C1328.09,248.271 1324.1,237.2 1318.34,230.852C1312.59,224.505 1304.47,221.331 1293.99,221.331L1284.91,221.331C1280.33,221.331 1277.01,221.7 1274.94,222.438C1272.88,223.176 1271.47,224.615 1270.74,226.756C1270,228.896 1269.63,232.328 1269.63,237.052L1269.63,291.965L1276.71,291.965C1284.54,291.965 1290.48,289.087 1294.54,283.33C1298.6,277.573 1301.44,270.708 1303.06,262.737L1308.16,262.737C1307.71,268.937 1307.49,275.875 1307.49,283.551L1307.49,294.179C1307.49,301.708 1307.93,312.188 1308.82,325.622L1303.73,325.622C1300.63,306.136 1291.62,296.394 1276.71,296.394L1269.63,296.394L1269.63,352.192C1269.63,356.916 1270,360.348 1270.74,362.489C1271.47,364.629 1272.88,366.068 1274.94,366.806C1277.01,367.544 1280.33,367.913 1284.91,367.913L1295.76,367.913C1306.24,367.913 1314.69,364.334 1321.11,357.174C1327.53,350.015 1332.07,337.874 1334.73,320.75L1339.82,320.75C1339.38,325.622 1339.16,331.821 1339.16,339.35Z" style="fill-rule:nonzero;"/>
                    <path d="M1508.32,363.264C1504.34,367.84 1500.06,371.124 1495.48,373.117C1490.9,375.11 1485.37,376.106 1478.87,376.106C1470.31,376.106 1463.56,374.298 1458.61,370.681C1453.67,367.065 1450.46,360.902 1448.98,352.192L1445,330.05C1443.08,319.274 1440.75,311.34 1438.02,306.247C1435.29,301.154 1430.75,298.608 1424.4,298.608L1410.01,298.608L1410.01,349.535C1410.01,355.145 1410.42,359.204 1411.23,361.714C1412.04,364.223 1413.55,365.921 1415.77,366.806C1417.98,367.692 1421.6,368.282 1426.62,368.578L1426.62,373.006C1418.65,372.563 1407.5,372.342 1393.18,372.342C1377.39,372.342 1365.73,372.563 1358.2,373.006L1358.2,368.578C1363.07,368.282 1366.65,367.692 1368.94,366.806C1371.23,365.921 1372.78,364.223 1373.59,361.714C1374.4,359.204 1374.81,355.145 1374.81,349.535L1374.81,239.709C1374.81,234.1 1374.4,230.04 1373.59,227.531C1372.78,225.021 1371.23,223.324 1368.94,222.438C1366.65,221.552 1363.07,220.962 1358.2,220.667L1358.2,216.238C1365.73,216.681 1376.95,216.903 1391.86,216.903L1416.43,216.681C1419.38,216.534 1422.78,216.46 1426.62,216.46C1446.99,216.46 1462.3,219.781 1472.56,226.424C1482.82,233.066 1487.95,242.588 1487.95,254.987C1487.95,265.468 1484.12,274.694 1476.44,282.665C1468.76,290.637 1456.07,295.656 1438.35,297.722C1451.64,298.903 1461.53,301.782 1468.03,306.358C1474.52,310.934 1478.73,317.798 1480.65,326.95L1485.74,349.757C1486.92,355.661 1488.29,359.795 1489.84,362.156C1491.38,364.518 1493.56,365.699 1496.37,365.699C1498.14,365.552 1499.65,365.109 1500.91,364.371C1502.16,363.633 1503.6,362.378 1505.22,360.606L1508.32,363.264ZM1423.74,220.667C1419.75,220.667 1416.84,221.183 1414.99,222.217C1413.15,223.25 1411.86,225.095 1411.12,227.752C1410.38,230.409 1410.01,234.395 1410.01,239.709L1410.01,294.179L1419.53,294.179C1431.64,294.179 1439.94,290.969 1444.44,284.547C1448.94,278.126 1451.2,269.085 1451.2,257.423C1451.2,245.319 1449.06,236.166 1444.78,229.967C1440.49,223.767 1433.48,220.667 1423.74,220.667Z" style="fill-rule:nonzero;"/>
                    <path d="M320.232,472.647L270.013,472.647L270.212,471.451C273.533,471.451 275.958,470.82 277.486,469.558C279.146,468.163 279.977,461.686 279.977,450.128L279.977,425.417C279.977,418.309 279.761,413.444 279.329,410.82C278.897,408.196 278.283,406.552 277.486,405.888C275.958,404.625 273.533,403.994 270.212,403.994L270.013,402.898L316.545,402.898L316.545,417.247L315.349,417.047C315.349,412.597 313.008,409.508 308.325,407.781C303.641,406.054 296.484,405.19 286.852,405.19L286.852,436.577C293.229,436.577 297.812,436.245 300.602,435.58C303.392,434.916 305.186,433.903 305.983,432.541C306.78,431.18 307.179,428.904 307.179,425.716L308.275,425.517L308.275,449.729L307.179,449.53C307.179,446.275 306.78,443.983 305.983,442.655C305.186,441.326 303.392,440.347 300.602,439.716C297.812,439.084 293.229,438.769 286.852,438.769L286.852,451.623C286.852,458.664 287.101,463.347 287.599,465.672C288.097,467.997 289.21,469.558 290.937,470.355C309.67,470.355 319.036,466.369 319.036,458.398L320.232,458.199L320.232,472.647Z" style="fill-rule:nonzero;"/>
                    <path d="M453.85,472.647L406.221,472.647L406.421,471.451C408.015,471.451 409.294,471.385 410.257,471.252C411.22,471.119 412.1,470.754 412.897,470.156C413.694,469.558 414.276,468.877 414.641,468.113C415.006,467.349 415.322,466.07 415.588,464.277C415.92,461.952 416.086,457.236 416.086,450.128L416.086,425.417C416.086,415.519 415.621,409.508 414.691,407.382C413.827,405.522 412.366,404.459 410.307,404.194C409.31,404.061 408.015,403.994 406.421,403.994L406.221,402.898L433.025,402.898L432.825,403.994C429.504,403.994 427.079,404.625 425.552,405.888C423.891,407.282 423.061,413.792 423.061,425.417L423.061,451.623C423.061,458.797 423.293,463.563 423.758,465.921C424.223,468.279 425.319,469.857 427.046,470.654C444.184,470.654 452.754,466.569 452.754,458.398L453.85,458.199L453.85,472.647Z" style="fill-rule:nonzero;"/>
                    <path d="M586.272,472.647L536.053,472.647L536.252,471.451C539.574,471.451 541.998,470.82 543.526,469.558C545.187,468.163 546.017,461.686 546.017,450.128L546.017,425.417C546.017,418.309 545.801,413.444 545.369,410.82C544.938,408.196 544.323,406.552 543.526,405.888C541.998,404.625 539.574,403.994 536.252,403.994L536.053,402.898L582.585,402.898L582.585,417.247L581.39,417.047C581.39,412.597 579.048,409.508 574.365,407.781C569.682,406.054 562.524,405.19 552.892,405.19L552.892,436.577C559.269,436.577 563.853,436.245 566.643,435.58C569.433,434.916 571.226,433.903 572.023,432.541C572.82,431.18 573.219,428.904 573.219,425.716L574.315,425.517L574.315,449.729L573.219,449.53C573.219,446.275 572.82,443.983 572.023,442.655C571.226,441.326 569.433,440.347 566.643,439.716C563.853,439.084 559.269,438.769 552.892,438.769L552.892,451.623C552.892,458.664 553.141,463.347 553.64,465.672C554.138,467.997 555.25,469.558 556.978,470.355C575.71,470.355 585.076,466.369 585.076,458.398L586.272,458.199L586.272,472.647Z" style="fill-rule:nonzero;"/>
                    <path d="M735.135,464.974C727.496,470.754 718.345,473.643 707.684,473.643C697.022,473.643 688.437,470.222 681.927,463.38C675.417,456.538 672.162,448.002 672.162,437.773C672.162,427.543 675.301,419.023 681.578,412.215C687.855,405.406 696.308,402.002 706.937,402.002C711.852,402.002 716.768,402.666 721.683,403.994C726.599,405.323 730.319,406.685 732.843,408.08L732.843,420.834L731.747,420.634C730.086,414.656 727.213,410.438 723.128,407.98C719.043,405.522 713.646,404.293 706.937,404.293C698.434,404.293 691.957,407.366 687.507,413.51C683.056,419.655 680.831,427.676 680.831,437.573C680.831,447.471 683.189,455.475 687.905,461.587C692.622,467.698 699.231,470.754 707.734,470.754C713.845,470.754 718.943,470.006 723.029,468.512C727.114,467.017 731.149,464.842 735.135,461.985L735.135,464.974Z" style="fill-rule:nonzero;"/>
                    <path d="M814.349,402.898L871.742,402.898L871.742,417.247L870.746,417.047C870.746,408.943 862.708,404.891 846.633,404.891L846.633,450.128C846.633,459.959 847.197,465.938 848.327,468.063C848.725,468.86 849.423,469.558 850.419,470.156C851.415,470.754 852.478,471.119 853.608,471.252C854.737,471.385 856.298,471.451 858.291,471.451L858.49,472.647L827.801,472.647L828,471.451C829.993,471.451 831.57,471.401 832.733,471.302C833.895,471.202 834.958,470.82 835.921,470.156C836.885,469.491 837.582,468.794 838.014,468.063C838.446,467.333 838.828,466.037 839.16,464.177C839.492,461.919 839.658,457.236 839.658,450.128L839.658,404.891C823.583,404.891 815.545,408.943 815.545,417.047L814.349,417.247L814.349,402.898Z" style="fill-rule:nonzero;"/>
                    <path d="M1003.87,472.647C1002.21,472.647 1000.56,471.8 998.933,470.106C997.306,468.412 995.844,466.303 994.549,463.779C993.254,461.254 991.743,458.514 990.016,455.558C988.288,452.602 986.561,449.829 984.834,447.238C983.107,444.648 980.915,442.456 978.258,440.662C975.601,438.869 972.778,437.905 969.788,437.773L969.788,450.128C969.788,457.302 970.004,462.168 970.436,464.725C970.868,467.283 971.482,468.894 972.28,469.558C973.874,470.82 976.332,471.451 979.653,471.451L979.852,472.647L953.149,472.647L953.348,471.451C956.603,471.451 958.994,470.853 960.522,469.657C961.784,468.661 962.515,465.406 962.714,459.893C962.847,457.701 962.913,454.446 962.913,450.128L962.913,424.919C962.913,417.545 962.714,412.663 962.315,410.272C961.917,407.88 961.319,406.386 960.522,405.788C958.994,404.659 956.603,404.094 953.348,404.094L953.149,402.898L976.265,402.898C993.005,402.898 1001.38,408.545 1001.38,419.837C1001.38,424.686 999.664,428.755 996.243,432.043C992.822,435.331 988.687,437.241 983.838,437.773C988.687,440.629 993.171,445.877 997.289,453.516C998.884,456.505 1000.58,459.361 1002.37,462.085C1006.29,468.329 1011.34,471.451 1017.52,471.451L1017.72,472.647L1003.87,472.647ZM969.788,405.19L969.788,435.78L976.066,435.78C981.114,435.78 985.299,434.484 988.621,431.894C991.942,429.303 993.603,425.45 993.603,420.335C993.603,410.238 987.823,405.19 976.265,405.19L969.788,405.19Z" style="fill-rule:nonzero;"/>
                    <path d="M1109.38,425.417L1109.38,450.128C1109.38,457.236 1109.6,462.085 1110.03,464.675C1110.46,467.266 1111.08,468.894 1111.88,469.558C1113.4,470.82 1115.83,471.451 1119.15,471.451L1119.35,472.647L1092.45,472.647L1092.64,471.451C1094.31,471.451 1095.6,471.385 1096.53,471.252C1097.46,471.119 1098.34,470.754 1099.17,470.156C1100,469.558 1100.6,468.877 1100.96,468.113C1101.33,467.349 1101.65,466.07 1101.91,464.277C1102.24,461.952 1102.41,457.236 1102.41,450.128L1102.41,425.417C1102.41,418.509 1102.21,413.693 1101.81,410.969C1101.41,408.246 1100.82,406.552 1100.02,405.888C1098.42,404.625 1095.97,403.994 1092.64,403.994L1092.45,402.898L1119.35,402.898L1119.15,403.994C1115.83,403.994 1113.4,404.625 1111.88,405.888C1110.21,407.282 1109.38,413.792 1109.38,425.417Z" style="fill-rule:nonzero;"/>
                    <path d="M1267.02,464.974C1259.38,470.754 1250.23,473.643 1239.57,473.643C1228.9,473.643 1220.32,470.222 1213.81,463.38C1207.3,456.538 1204.04,448.002 1204.04,437.773C1204.04,427.543 1207.18,419.023 1213.46,412.215C1219.74,405.406 1228.19,402.002 1238.82,402.002C1243.73,402.002 1248.65,402.666 1253.57,403.994C1258.48,405.323 1262.2,406.685 1264.73,408.08L1264.73,420.834L1263.63,420.634C1261.97,414.656 1259.1,410.438 1255.01,407.98C1250.92,405.522 1245.53,404.293 1238.82,404.293C1230.32,404.293 1223.84,407.366 1219.39,413.51C1214.94,419.655 1212.71,427.676 1212.71,437.573C1212.71,447.471 1215.07,455.475 1219.79,461.587C1224.5,467.698 1231.11,470.754 1239.62,470.754C1245.73,470.754 1250.83,470.006 1254.91,468.512C1259,467.017 1263.03,464.842 1267.02,461.985L1267.02,464.974Z" style="fill-rule:nonzero;"/>
                    <path d="M1388.88,471.451C1391.4,471.451 1393.18,471.252 1394.21,470.853C1395.24,470.455 1395.75,469.425 1395.75,467.764C1395.75,466.104 1393.99,460.457 1390.47,450.825L1360.08,450.825C1357.22,459.262 1355.8,464.559 1355.8,466.718C1355.8,468.877 1356.34,470.206 1357.44,470.704C1358.54,471.202 1360.51,471.451 1363.37,471.451L1363.57,472.647L1341.15,472.647L1341.35,471.451C1343.28,471.451 1344.79,471.285 1345.88,470.953C1346.98,470.621 1348.17,469.741 1349.47,468.312C1350.76,466.884 1352.01,464.808 1353.2,462.085C1354.4,459.361 1355.83,455.542 1357.49,450.626L1366.36,425.019C1369.48,415.984 1371.04,410.504 1371.04,408.578C1371.04,406.651 1370.58,405.406 1369.65,404.841C1368.72,404.277 1366.92,403.994 1364.27,403.994L1364.07,402.898L1380.51,402.898L1398.14,450.626C1401.13,458.531 1403.14,463.546 1404.17,465.672C1405.2,467.798 1406.18,469.159 1407.11,469.757C1408.77,470.886 1410.86,471.451 1413.39,471.451L1413.59,472.647L1388.68,472.647L1388.88,471.451ZM1374.93,408.279L1360.88,448.434L1389.67,448.434L1374.93,408.279Z" style="fill-rule:nonzero;"/>
                    <path d="M1537.44,472.647L1489.81,472.647L1490.01,471.451C1491.61,471.451 1492.88,471.385 1493.85,471.252C1494.81,471.119 1495.69,470.754 1496.49,470.156C1497.29,469.558 1497.87,468.877 1498.23,468.113C1498.6,467.349 1498.91,466.07 1499.18,464.277C1499.51,461.952 1499.68,457.236 1499.68,450.128L1499.68,425.417C1499.68,415.519 1499.21,409.508 1498.28,407.382C1497.42,405.522 1495.96,404.459 1493.9,404.194C1492.9,404.061 1491.61,403.994 1490.01,403.994L1489.81,402.898L1516.62,402.898L1516.42,403.994C1513.1,403.994 1510.67,404.625 1509.14,405.888C1507.48,407.282 1506.65,413.792 1506.65,425.417L1506.65,451.623C1506.65,458.797 1506.88,463.563 1507.35,465.921C1507.81,468.279 1508.91,469.857 1510.64,470.654C1527.78,470.654 1536.35,466.569 1536.35,458.398L1537.44,458.199L1537.44,472.647Z" style="fill-rule:nonzero;"/>
                    <path d="M1622.83,451.523C1622.83,457.966 1624.41,462.882 1627.57,466.27C1630.72,469.657 1634.59,471.351 1639.17,471.351C1643.76,471.351 1647.51,470.239 1650.43,468.013C1653.36,465.788 1654.82,462.284 1654.82,457.501C1654.82,453.184 1652.53,449.331 1647.94,445.943C1645.95,444.482 1643.72,443.037 1641.27,441.609C1638.81,440.18 1636.35,438.702 1633.89,437.175C1631.43,435.647 1629.21,434.053 1627.22,432.392C1622.63,428.539 1620.34,424.039 1620.34,418.891C1620.34,413.743 1622.22,409.641 1625.97,406.585C1629.73,403.529 1634.71,402.002 1640.92,402.002C1647.13,402.002 1652.89,403.363 1658.2,406.087C1658.2,409.408 1657.71,415.121 1656.71,423.225L1655.22,422.826C1655.22,416.582 1653.69,411.916 1650.63,408.827C1647.58,405.738 1644.07,404.194 1640.12,404.194C1636.17,404.194 1633,405.34 1630.61,407.631C1628.21,409.923 1627.02,412.63 1627.02,415.752C1627.02,418.874 1627.87,421.548 1629.56,423.773C1631.25,425.998 1633.38,427.842 1635.94,429.303C1638.49,430.764 1641.27,432.375 1644.26,434.136C1647.25,435.896 1650.02,437.623 1652.58,439.317C1655.13,441.011 1657.26,443.22 1658.95,445.943C1660.65,448.667 1661.49,451.722 1661.49,455.11C1661.49,461.221 1659.32,465.838 1654.97,468.96C1650.62,472.082 1645.38,473.643 1639.27,473.643C1635.89,473.643 1632.41,473.112 1628.86,472.049C1625.31,470.986 1622.4,469.425 1620.14,467.366C1620.14,463.114 1620.54,457.734 1621.34,451.224L1622.83,451.523Z" style="fill-rule:nonzero;"/>
                </g>
            </g>
        </g>
    </g>
</svg>
